<?xml version="1.0" standalone="no"?>
<!DOCTYPE svg PUBLIC "-//W3C//DTD SVG 1.1//EN" "http://www.w3.org/Graphics/SVG/1.1/DTD/svg11.dtd" >
<svg xmlns="http://www.w3.org/2000/svg" xmlns:xlink="http://www.w3.org/1999/xlink" version="1.1">
<metadata>
Created by FontForge 20160407 at Wed Aug  3 21:28:21 2016
 By Jimmy Warting
Modern and elegant sans serif font.
</metadata>
<defs>
<font id="NexaBlack" horiz-adv-x="622" >
  <font-face 
    font-family="Nexa Black"
    font-weight="900"
    font-stretch="normal"
    units-per-em="1000"
    panose-1="2 0 0 0 0 0 0 0 0 0"
    ascent="750"
    descent="-250"
    x-height="494"
    cap-height="700"
    bbox="-184 -305 1273 991"
    underline-thickness="50"
    underline-position="-100"
    stemh="156"
    stemv="186"
    unicode-range="U+0020-FB02"
  />
<missing-glyph horiz-adv-x="665" 
d="M250 142c0 -81 124 -81 124 0c0 85 -124 85 -124 0zM142 443h108c-2 33 32 60 70 60c34 0 73 -11 74 -57c1 -37 -41 -38 -77 -59c-20 -20 -62 -38 -61 -136l107 -1c0 16 5 40 7 49c36 32 136 40 134 147c0 106 -87 154 -184 154c-98 0 -179 -52 -178 -157zM40 0v700h563
v-700h-563z" />
    <glyph glyph-name=".notdef" horiz-adv-x="665" 
d="M250 142c0 -81 124 -81 124 0c0 85 -124 85 -124 0zM142 443h108c-2 33 32 60 70 60c34 0 73 -11 74 -57c1 -37 -41 -38 -77 -59c-20 -20 -62 -38 -61 -136l107 -1c0 16 5 40 7 49c36 32 136 40 134 147c0 106 -87 154 -184 154c-98 0 -179 -52 -178 -157zM40 0v700h563
v-700h-563z" />
    <glyph glyph-name=".null" horiz-adv-x="0" 
 />
    <glyph glyph-name="CR" horiz-adv-x="322" 
 />
    <glyph glyph-name="space" unicode=" " horiz-adv-x="227" 
 />
    <glyph glyph-name="slash" unicode="/" horiz-adv-x="532" 
d="M336 752h173l-314 -829h-171z" />
    <glyph glyph-name="backslash" unicode="\" horiz-adv-x="533" 
d="M23 752h172l314 -829h-173z" />
    <glyph glyph-name="underscore" unicode="_" horiz-adv-x="511" 
d="M9 -143v146h493v-146h-493z" />
    <glyph glyph-name="brokenbar" unicode="&#xa6;" horiz-adv-x="318" 
d="M252 339h-186v360h186v-360zM66 280h186v-366h-186v366z" />
    <glyph glyph-name="fraction" unicode="&#x2044;" horiz-adv-x="180" 
d="M201 696h162l-385 -701h-162z" />
    <glyph glyph-name="dotlessi" unicode="&#x131;" horiz-adv-x="292" 
d="M238 0h-184v494h184v-494z" />
    <glyph glyph-name="Thorn" unicode="&#xde;" horiz-adv-x="696" 
d="M70 0l1 700h196v-108h134c187 0 280 -120 280 -241s-93 -241 -280 -241h-134v-110h-197zM267 427v-155h134c56 0 84 39 84 77s-28 78 -84 78h-134z" />
    <glyph glyph-name="germandbls" unicode="&#xdf;" horiz-adv-x="634" 
d="M290 -5v146c19 -4 33 -6 42 -6c73 0 85 54 85 89c0 65 -51 75 -101 75h-26v161h16c41 0 65 18 65 49c0 32 -29 49 -58 49c-39 0 -65 -20 -66 -54v-504h-193v507c0 133 131 204 260 204c123 0 248 -54 248 -196c0 -59 -36 -103 -88 -127c104 -38 134 -110 134 -177
c0 -148 -109 -221 -247 -221c-22 0 -46 1 -71 5z" />
    <glyph glyph-name="eth" unicode="&#xf0;" horiz-adv-x="585" 
d="M294 656l53 63l103 -79l-43 -50c116 -91 151 -226 148 -340c-9 -149 -86 -258 -264 -258c-176 0 -264 121 -264 246c0 142 101 244 248 244c12 0 21 0 32 -1c-53 46 -134 73 -197 81l28 131c64 -8 120 -22 156 -37zM291 141c116 0 118 195 0 195c-112 0 -115 -195 0 -195
z" />
    <glyph glyph-name="thorn" unicode="&#xfe;" horiz-adv-x="640" 
d="M340 147c50 0 91 38 91 99s-41 99 -91 99c-48 0 -90 -46 -90 -99s41 -99 90 -99zM237 -194h-183v882h183v-237c42 39 92 53 152 53c145 0 224 -122 224 -254s-73 -259 -234 -259c-44 0 -102 15 -142 51v-236z" />
    <glyph glyph-name="sterling" unicode="&#xa3;" horiz-adv-x="669" 
d="M291 472c0 -21 4 -46 10 -69h189v-136h-166c5 -34 -8 -87 -31 -110h333v-157h-576v156c64 2 91 64 87 111h-87v136h60c-5 21 -9 49 -10 68c-6 139 88 239 261 239c152 0 257 -73 250 -227h-175c-1 49 -29 72 -69 72c-46 0 -76 -27 -76 -83z" />
    <glyph glyph-name="section" unicode="&#xa7;" horiz-adv-x="639" 
d="M37 69l79 117c86 -58 158 -63 203 -63c58 0 95 10 95 31c0 17 -33 29 -91 28c-127 -2 -272 41 -265 165c1 29 29 74 71 91c-52 28 -65 72 -65 101c0 135 153 171 271 171c75 0 156 -7 236 -78l-97 -96c-30 23 -81 36 -139 36c-59 0 -90 -11 -90 -29s31 -26 84 -26
c118 0 274 -26 264 -168c-4 -31 -29 -68 -62 -90c39 -26 61 -67 61 -103c0 -152 -181 -174 -277 -174c-101 0 -196 14 -278 87zM421 351c0 26 -37 39 -92 39c-59 0 -100 -11 -100 -38c0 -24 38 -38 88 -38c34 0 104 4 104 37z" />
    <glyph glyph-name="fi" unicode="&#xfb01;" horiz-adv-x="705" 
d="M456 621c0 62 52 93 104 93c51 0 103 -31 103 -93c0 -61 -52 -92 -103 -92c-52 0 -104 31 -104 92zM467 0h185v486h-185v-486zM390 562l35 127c-32 17 -72 22 -111 22c-102 0 -213 -57 -213 -202v-24h-84v-140h84v-345h184v345h119v140h-119v24c0 43 26 61 55 61
c18 0 36 -2 50 -8z" />
    <glyph glyph-name="fl" unicode="&#xfb02;" horiz-adv-x="706" 
d="M652 0h-181v696h181v-696zM425 689l-35 -127c-14 6 -32 8 -50 8c-29 0 -55 -18 -55 -61v-24h119v-140h-119v-345h-184v345h-84v140h84v24c0 145 111 202 213 202c39 0 79 -5 111 -22z" />
    <glyph glyph-name="Lslash" unicode="&#x141;" horiz-adv-x="628" 
d="M277 453l99 52v-149l-99 -50v-140h336v-166h-533v209l-69 -35v145l69 35v346h197v-247z" />
    <glyph glyph-name="lslash" unicode="&#x142;" horiz-adv-x="331" 
d="M317 470v-131l-64 -32v-307h-182v215l-58 -32v135l58 30v339h182v-248z" />
    <glyph glyph-name="plus" unicode="+" horiz-adv-x="518" 
d="M40 400h136v132h165v-132h137v-153h-137v-133h-165v133h-136v153z" />
    <glyph glyph-name="asterisk" unicode="*" horiz-adv-x="433" 
d="M369 463l-106 -79l-46 78l-45 -79l-109 69l62 66l-88 18l37 118l85 -34l-7 86h133l-14 -87l91 38l34 -121l-87 -16z" />
    <glyph glyph-name="parenright" unicode=")" horiz-adv-x="374" 
d="M6 699l84 98c152 -107 256 -282 256 -479c0 -198 -83 -369 -251 -481l-79 106c101 83 164 234 164 375c0 154 -69 295 -174 381z" />
    <glyph glyph-name="parenleft" unicode="(" horiz-adv-x="374" 
d="M284 797l84 -98c-105 -86 -174 -227 -174 -381c0 -141 63 -292 164 -375l-79 -106c-168 112 -251 283 -251 481c0 197 104 372 256 479z" />
    <glyph glyph-name="quotesingle" unicode="'" horiz-adv-x="266" 
d="M58 701h150v-273h-150v273z" />
    <glyph glyph-name="ampersand" unicode="&#x26;" horiz-adv-x="743" 
d="M236 215c0 -48 47 -67 97 -67c58 0 113 31 113 87v47h-107c-45 0 -103 -11 -103 -67zM627 498h-180c-2 94 -181 88 -181 2c0 -52 46 -75 84 -75h345v-140h-71v-54c0 -38 27 -67 75 -59v-173c-63 -12 -142 -8 -175 75c-53 -56 -119 -85 -215 -85c-134 0 -268 46 -268 215
c0 53 39 118 101 153c-58 29 -77 99 -77 139c0 169 167 217 291 217c141 0 271 -54 271 -215z" />
    <glyph glyph-name="percent" unicode="%" horiz-adv-x="900" 
d="M211 710c124 0 179 -84 179 -168c0 -85 -55 -167 -179 -167c-123 0 -178 82 -178 167c0 84 55 168 178 168zM588 699h180l-458 -699h-183zM211 498c33 0 47 22 47 44s-14 44 -47 44c-32 0 -47 -22 -47 -44s15 -44 47 -44zM688 327c124 0 179 -84 179 -168
c0 -85 -55 -167 -179 -167c-123 0 -178 82 -178 167c0 84 55 168 178 168zM688 115c33 0 47 22 47 44s-14 44 -47 44c-32 0 -47 -22 -47 -44s15 -44 47 -44z" />
    <glyph glyph-name="numbersign" unicode="#" horiz-adv-x="739" 
d="M244 700h168l-36 -143h93l35 143h170l-36 -143h64v-141h-99l-38 -145h72v-142h-104l-31 -129h-169l31 129h-92l-32 -129h-167l31 129h-68v142h104l35 146h-74v140h109zM437 425h-93l-40 -160h93z" />
    <glyph glyph-name="quotedbl" unicode="&#x22;" horiz-adv-x="471" 
d="M58 701h150v-273h-150v273zM263 701h150v-273h-150v273z" />
    <glyph glyph-name="exclam" unicode="!" horiz-adv-x="321" 
d="M254 230h-187l-3 470h194zM159 -5c-140 0 -140 196 0 196c142 0 143 -196 0 -196z" />
    <glyph glyph-name="comma" unicode="," horiz-adv-x="275" 
d="M230 61c0 -33 -19 -89 -58 -169h-96l21 103c-43 8 -53 38 -53 67c0 53 47 81 97 81c46 0 89 -27 89 -82z" />
    <glyph glyph-name="hyphen" unicode="-" horiz-adv-x="510" 
d="M54 217v146h402v-146h-402z" />
    <glyph glyph-name="period" unicode="." horiz-adv-x="283" 
d="M141 -8c-131 0 -133 181 0 181c134 0 133 -181 0 -181z" />
    <glyph glyph-name="colon" unicode=":" horiz-adv-x="314" 
d="M57 83c0 59 49 89 99 89s101 -30 101 -89s-51 -89 -101 -89s-99 30 -99 89zM57 354c0 59 49 88 99 88s101 -29 101 -88c0 -60 -51 -89 -101 -89s-99 29 -99 89z" />
    <glyph glyph-name="semicolon" unicode=";" horiz-adv-x="296" 
d="M54 354c0 55 45 82 92 82s94 -27 94 -82c0 -56 -47 -83 -94 -83s-92 27 -92 83zM241 61c0 -33 -19 -89 -58 -169h-96l21 103c-43 8 -53 38 -53 67c0 53 47 81 97 81c46 0 89 -27 89 -82z" />
    <glyph glyph-name="less" unicode="&#x3c;" horiz-adv-x="441" 
d="M245 309l144 -136l-115 -117l-243 248v12l245 247l114 -117z" />
    <glyph glyph-name="greater" unicode="&#x3e;" horiz-adv-x="443" 
d="M53 164l149 145l-151 146l116 112l245 -250v-14l-245 -250z" />
    <glyph glyph-name="equal" unicode="=" horiz-adv-x="557" 
d="M60 127v144h437v-144h-437zM60 341v145h437v-145h-437z" />
    <glyph glyph-name="question" unicode="?" horiz-adv-x="601" 
d="M382 230h-194c7 135 74 169 129 201c32 19 47 35 48 57c1 31 -23 60 -73 60c-44 0 -83 -16 -83 -74h-176c-15 154 116 234 259 234s277 -64 276 -218c-1 -145 -183 -132 -186 -260zM287 -5c-140 0 -140 196 0 196c142 0 143 -196 0 -196z" />
    <glyph glyph-name="at" unicode="@" horiz-adv-x="922" 
d="M590 -19l45 -91c-58 -34 -123 -47 -175 -47c-206 0 -419 118 -419 400c0 266 215 409 426 409c234 0 421 -121 421 -401c0 -159 -76 -261 -194 -261c-35 0 -82 16 -101 79c-33 -54 -83 -72 -149 -72c-140 0 -237 89 -237 246c0 161 119 244 237 244c62 0 115 -25 138 -65
l6 49l107 -17v-321c0 -25 17 -29 22 -29c36 0 60 49 60 144c0 217 -117 298 -310 298c-162 0 -310 -116 -310 -303c0 -212 146 -294 306 -294c33 0 84 6 127 32zM460 363c-79 0 -114 -59 -114 -119c0 -59 35 -117 115 -117c76 0 115 55 115 122c0 62 -38 114 -116 114z" />
    <glyph glyph-name="bracketleft" unicode="[" horiz-adv-x="372" 
d="M337 -157h-271v860h271v-145h-106v-570h106v-145z" />
    <glyph glyph-name="bracketright" unicode="]" horiz-adv-x="374" 
d="M308 -157h-273v145h106v570h-106v145h273v-860z" />
    <glyph glyph-name="asciicircum" unicode="^" horiz-adv-x="638" 
d="M36 331v13l225 347h106l235 -346v-14h-177l-112 163l-105 -163h-172z" />
    <glyph glyph-name="grave" unicode="`" horiz-adv-x="288" 
d="M-3 693v8h193l77 -161v-6h-161z" />
    <glyph glyph-name="braceleft" unicode="{" horiz-adv-x="386" 
d="M350 -14v-132c-32 -6 -70 -10 -93 -10c-119 0 -167 69 -167 175v141c0 24 -6 55 -63 55v128c57 0 63 30 63 56v133c0 114 43 184 167 184c23 0 59 -3 93 -9v-122c-43 9 -87 7 -87 -60v-140c0 -46 1 -81 -47 -108c42 -24 47 -60 47 -104v-136c1 -61 44 -57 87 -51z" />
    <glyph glyph-name="braceright" unicode="}" horiz-adv-x="386" 
d="M36 -146v132c43 -6 86 -10 87 51v136c0 44 5 80 47 104c-48 27 -47 62 -47 108v140c0 67 -44 69 -87 60v122c34 6 70 9 93 9c124 0 167 -70 167 -184v-133c0 -26 6 -56 63 -56v-128c-57 0 -63 -31 -63 -55v-141c0 -106 -48 -175 -167 -175c-23 0 -61 4 -93 10z" />
    <glyph glyph-name="bar" unicode="|" horiz-adv-x="311" 
d="M245 750v-820h-179v820h179z" />
    <glyph glyph-name="asciitilde" unicode="~" horiz-adv-x="619" 
d="M170 208l-123 45c13 91 72 157 169 155c103 -2 193 -136 235 -13l123 -45c-13 -91 -72 -157 -169 -155c-103 2 -165 136 -235 13z" />
    <glyph glyph-name="Euro" unicode="&#x20ac;" horiz-adv-x="645" 
d="M43 199v121h55c0 20 -1 44 0 50h-55v117h83c71 202 306 258 476 192l-48 -141c-84 31 -175 31 -222 -51h181l-29 -117h-199c-1 -17 -1 -33 0 -50h188l-26 -121h-113c52 -58 157 -75 229 -49l48 -144c-48 -15 -100 -21 -140 -21c-183 0 -303 80 -350 214h-78z" />
    <glyph glyph-name="quotesinglbase" unicode="&#x201a;" horiz-adv-x="300" 
d="M16 -155l52 256h180l-87 -256h-145z" />
    <glyph glyph-name="florin" unicode="&#x192;" horiz-adv-x="525" 
d="M464 337h-128v-338c0 -222 -230 -258 -353 -153l56 111c20 -17 34 -24 58 -24c29 0 55 18 55 65v339h-109v142h109v30c0 145 111 202 213 202c57 0 112 -18 149 -54l-56 -111c-20 17 -43 24 -67 24c-29 0 -55 -18 -55 -61v-30h128v-142z" />
    <glyph glyph-name="quotedblbase" unicode="&#x201e;" horiz-adv-x="517" 
d="M16 -155l52 256h176l-83 -256h-145zM237 -155l55 256h173l-85 -256h-143z" />
    <glyph glyph-name="perthousand" unicode="&#x2030;" horiz-adv-x="1304" 
d="M212 710c124 0 179 -84 179 -168c0 -85 -55 -167 -179 -167c-123 0 -178 82 -178 167c0 84 55 168 178 168zM589 699h180l-458 -699h-183zM212 498c33 0 47 22 47 44s-14 44 -47 44c-32 0 -47 -22 -47 -44s15 -44 47 -44zM689 327c124 0 179 -84 179 -168
c0 -85 -55 -167 -179 -167c-123 0 -178 82 -178 167c0 84 55 168 178 168zM689 115c33 0 47 22 47 44s-14 44 -47 44c-32 0 -47 -22 -47 -44s15 -44 47 -44zM1094 327c124 0 179 -84 179 -168c0 -85 -55 -167 -179 -167c-123 0 -178 82 -178 167c0 84 55 168 178 168z
M1094 115c33 0 47 22 47 44s-14 44 -47 44c-32 0 -47 -22 -47 -44s15 -44 47 -44z" />
    <glyph glyph-name="circumflex" unicode="&#x2c6;" horiz-adv-x="451" 
d="M157 706h114l152 -157v-8h-158l-51 47l-51 -47h-158v8z" />
    <glyph glyph-name="dagger" unicode="&#x2020;" horiz-adv-x="607" 
d="M395 700v-173h179v-157h-179v-462h-184v462h-177v157h177v173h184z" />
    <glyph glyph-name="daggerdbl" unicode="&#x2021;" horiz-adv-x="636" 
d="M409 701v-171h179v-150h-179v-164h179v-148h-179v-170h-182v170h-179v148h179v164h-179v150h179v171h182z" />
    <glyph glyph-name="guilsinglleft" unicode="&#x2039;" horiz-adv-x="394" 
d="M29 292l140 224l193 1l-139 -224c60 -99 106 -173 140 -225h-194z" />
    <glyph glyph-name="guilsinglright" unicode="&#x203a;" horiz-adv-x="392" 
d="M225 520l139 -223l-139 -223h-194l138 222l-138 224h194z" />
    <glyph glyph-name="guillemotleft" unicode="&#xab;" horiz-adv-x="558" 
d="M29 297l139 222h153v1l-139 -223c46 -76 90 -150 139 -223h-153zM235 297l139 222h154v1l-139 -223l139 -223h-154z" />
    <glyph glyph-name="guillemotright" unicode="&#xbb;" horiz-adv-x="557" 
d="M390 521l139 -222l-139 -222h-154l139 222l-139 223v-1h154zM185 521l139 -222l-139 -222h-153l139 222l-139 223v-1h153z" />
    <glyph glyph-name="quoteleft" unicode="&#x2018;" horiz-adv-x="293" 
d="M261 701l-51 -259h-177l90 259h138z" />
    <glyph glyph-name="quoteright" unicode="&#x2019;" horiz-adv-x="288" 
d="M41 441l51 259h177l-90 -259h-138z" />
    <glyph glyph-name="quotedblleft" unicode="&#x201c;" horiz-adv-x="503" 
d="M273 700l-70 -253h-170l106 253h134zM470 700l-49 -253h-173l87 253h135z" />
    <glyph glyph-name="quotedblright" unicode="&#x201d;" horiz-adv-x="494" 
d="M240 447l70 253h170l-106 -253h-134zM43 447l49 253h173l-87 -253h-135z" />
    <glyph glyph-name="bullet" unicode="&#x2022;" horiz-adv-x="439" 
d="M220 170c-89 0 -155 56 -155 141s66 143 155 143c87 0 154 -58 154 -143s-67 -141 -154 -141z" />
    <glyph glyph-name="emdash" unicode="&#x2014;" horiz-adv-x="697" 
d="M54 213v147h589v-147h-589z" />
    <glyph glyph-name="endash" unicode="&#x2013;" horiz-adv-x="607" 
d="M53 210v147h501v-147h-501z" />
    <glyph glyph-name="tilde" unicode="&#x2dc;" horiz-adv-x="487" 
d="M236 571c-44 24 -85 29 -105 -14l-101 64c34 92 137 116 215 74c44 -24 80 -28 107 17l97 -63c-35 -91 -117 -126 -213 -78z" />
    <glyph glyph-name="trademark" unicode="&#x2122;" horiz-adv-x="847" 
d="M271 592v-196h-121v196h-90v108h303v-108h-92zM524 700l69 -87l67 87h119v-305h-120v69l4 72l-57 -79h-28l-57 80l4 -73v-69h-119v305h118z" />
    <glyph glyph-name="cent" unicode="&#xa2;" horiz-adv-x="561" 
d="M422 184l105 -110c-43 -39 -92 -66 -144 -77v-76h-161v82c-101 28 -179 102 -179 243c0 137 79 215 179 245v85h161v-78c48 -10 94 -34 131 -70l-98 -106c-24 25 -52 36 -85 36c-70 0 -108 -51 -108 -113c0 -54 37 -102 107 -102c34 0 67 14 92 41z" />
    <glyph glyph-name="currency" unicode="&#xa4;" horiz-adv-x="632" 
d="M316 233c47 0 76 28 76 76s-29 76 -76 76c-46 0 -76 -28 -76 -76s30 -76 76 -76zM316 520c27 0 54 -4 80 -10l68 69l121 -121l-56 -56c12 -26 18 -57 18 -93s-7 -67 -18 -93l55 -54l-121 -121l-67 67c-26 -7 -53 -11 -80 -11c-28 0 -55 3 -81 10l-66 -67l-121 121l55 56
c-11 26 -17 56 -17 92c0 35 6 65 17 91l-58 58l121 121l70 -69c25 7 52 10 80 10z" />
    <glyph glyph-name="copyright" unicode="&#xa9;" horiz-adv-x="818" 
d="M413 721c233 0 365 -156 365 -365c0 -210 -132 -365 -365 -365c-230 0 -374 155 -374 365c0 203 144 365 374 365zM225 352c0 -122 94 -189 196 -189c56 0 108 17 157 65l-68 68c-22 -22 -47 -33 -80 -33c-50 0 -99 29 -99 89c0 67 47 96 99 96c28 0 59 -13 78 -30l67 66
c-43 42 -92 63 -150 63c-105 0 -193 -68 -200 -195zM149 356c0 -160 105 -268 264 -268c161 0 256 105 256 268c0 162 -95 267 -256 267c-159 0 -264 -111 -264 -267z" />
    <glyph glyph-name="ordfeminine" unicode="&#xaa;" horiz-adv-x="438" 
d="M274 652l13 42h107v-332h-113l-8 44c-21 -41 -62 -52 -102 -52c-89 5 -155 61 -155 174c0 112 68 173 159 173c55 0 82 -23 99 -49zM199 588c-33 0 -58 -21 -58 -60c0 -40 25 -61 58 -61c38 0 58 30 58 61c0 29 -20 60 -58 60zM36 206v106h355v-106h-355z" />
    <glyph glyph-name="logicalnot" unicode="&#xac;" horiz-adv-x="557" 
d="M491 394v-259h-154v125h-279v134h433z" />
    <glyph glyph-name="minus" unicode="&#x2212;" horiz-adv-x="540" 
d="M60 201v152h420v-152h-420z" />
    <glyph glyph-name="registered" unicode="&#xae;" horiz-adv-x="818" 
d="M583 170l-83 129c118 33 105 233 -67 233h-166v-362h103v108h42l60 -108h111zM368 443h69c50 0 51 -81 1 -81h-70v81zM413 721c233 0 365 -156 365 -365c0 -210 -132 -365 -365 -365c-230 0 -374 155 -374 365c0 203 144 365 374 365zM149 356c0 -160 105 -268 264 -268
c161 0 256 105 256 268c0 162 -95 267 -256 267c-159 0 -264 -111 -264 -267z" />
    <glyph glyph-name="degree" unicode="&#xb0;" horiz-adv-x="389" 
d="M195 708c107 0 160 -75 160 -145c0 -73 -53 -144 -162 -144c-107 0 -159 71 -159 143c0 71 53 146 161 146zM194 607c-32 0 -46 -23 -46 -44c0 -22 16 -43 46 -43s46 21 46 43c0 21 -13 44 -46 44z" />
    <glyph glyph-name="plusminus" unicode="&#xb1;" horiz-adv-x="563" 
d="M60 328v156h137v134h170v-134h136v-156h-136v-134h-170v134h-137zM58 -2v147h447v-147h-447z" />
    <glyph glyph-name="threesuperior" unicode="&#xb3;" horiz-adv-x="384" 
d="M189 529h-62v80h58c36 0 50 14 50 31c0 18 -20 28 -51 28c-25 0 -50 -9 -54 -28h-96c0 85 83 121 153 121c72 0 156 -34 156 -122c0 -27 -16 -57 -43 -70c37 -15 53 -47 53 -80c0 -97 -93 -119 -165 -119c-79 0 -160 36 -161 124h112c3 -22 26 -28 48 -28
c26 0 51 10 51 32c0 18 -17 31 -49 31z" />
    <glyph glyph-name="twosuperior" unicode="&#xb2;" horiz-adv-x="378" 
d="M142 636h-105c1 80 71 125 150 125c86 0 157 -42 157 -126c0 -91 -81 -107 -143 -120c-32 -7 -60 -14 -63 -35h203v-102h-306v99c0 89 73 106 132 120c36 9 67 16 67 38c0 21 -19 31 -46 31c-26 0 -42 -11 -46 -30z" />
    <glyph glyph-name="mu" unicode="&#xb5;" horiz-adv-x="641" 
d="M597 0h-149l-18 63c-29 -77 -139 -94 -195 -19v-249h-172v699h179v-235c0 -75 48 -97 90 -97c46 0 88 29 89 98v234h176v-494z" />
    <glyph glyph-name="mu" unicode="&#x3bc;" horiz-adv-x="641" 
d="M597 0h-149l-18 63c-29 -77 -139 -94 -195 -19v-249h-172v699h179v-235c0 -75 48 -97 90 -97c46 0 88 29 89 98v234h176v-494z" />
    <glyph glyph-name="paragraph" unicode="&#xb6;" horiz-adv-x="891" 
d="M456 532v-732h-178v392c-318 0 -349 508 25 508h548v-168h-91v-732h-182v732h-122z" />
    <glyph glyph-name="periodcentered" unicode="&#xb7;" horiz-adv-x="298" 
d="M148 199c-138 0 -139 190 0 190c138 0 139 -190 0 -190z" />
    <glyph glyph-name="cedilla" unicode="&#xb8;" horiz-adv-x="364" 
d="M42 -199l63 66c29 -29 97 -44 108 -2c9 35 -50 57 -85 33l-28 21l42 110h118l-19 -53c88 -9 122 -75 100 -143c-39 -120 -233 -121 -299 -32z" />
    <glyph glyph-name="onesuperior" unicode="&#xb9;" horiz-adv-x="286" 
d="M33 379v95h61v158c-16 -3 -38 -9 -51 -11v93l158 42v-282h63v-95h-231z" />
    <glyph glyph-name="ordmasculine" unicode="&#xba;" horiz-adv-x="425" 
d="M35 181v124h356v-124h-356zM212 344c-111 0 -195 62 -195 186c0 122 82 182 195 182c114 0 195 -60 195 -182c0 -124 -83 -186 -195 -186zM212 469c33 0 60 21 60 61c0 39 -27 61 -60 61c-32 0 -60 -22 -60 -61c0 -40 28 -61 60 -61z" />
    <glyph glyph-name="divide" unicode="&#xf7;" horiz-adv-x="541" 
d="M38 399v-145h465v145h-465zM177 133c0 60 48 89 98 89c49 0 98 -29 98 -89c0 -58 -49 -87 -98 -87c-50 0 -98 29 -98 87zM177 521c0 60 48 88 98 88c49 0 98 -28 98 -88c0 -59 -49 -88 -98 -88c-50 0 -98 29 -98 88z" />
    <glyph glyph-name="multiply" unicode="&#xd7;" horiz-adv-x="476" 
d="M161 508l79 -84l83 85l111 -111l-87 -89l87 -87l-113 -106l-83 84c-26 -27 -58 -60 -81 -85l-116 114l84 83l-81 83z" />
    <glyph glyph-name="caron" unicode="&#x2c7;" horiz-adv-x="446" 
d="M283 534h-114l-152 157v8h158l51 -47l51 47h158v-8z" />
    <glyph glyph-name="ogonek" unicode="&#x2db;" horiz-adv-x="390" 
d="M251 -126l59 -75c-69 -62 -239 -53 -261 52c-17 82 46 147 144 147c17 0 37 -1 66 -6l17 -75c-8 2 -29 6 -51 6c-32 0 -57 -17 -51 -40c7 -26 59 -18 77 -9z" />
    <glyph glyph-name="hungarumlaut" unicode="&#x2dd;" horiz-adv-x="530" 
d="M113 700h168v-8l-102 -155h-164zM338 700h168v-8l-102 -155h-164z" />
    <glyph glyph-name="ring" unicode="&#x2da;" horiz-adv-x="427" 
d="M208 706c208 0 211 -279 0 -279c-205 0 -206 279 0 279zM210 606c-58 0 -58 -78 0 -78c57 0 56 78 0 78z" />
    <glyph glyph-name="dotaccent" unicode="&#x2d9;" horiz-adv-x="276" 
d="M36 610c0 59 50 89 101 89c50 0 101 -30 101 -89s-51 -89 -101 -89c-51 0 -101 30 -101 89z" />
    <glyph glyph-name="breve" unicode="&#x2d8;" horiz-adv-x="406" 
d="M29 700h134c0 -39 31 -44 42 -44s42 5 42 44h134c3 -107 -70 -170 -176 -170s-179 63 -176 170z" />
    <glyph glyph-name="B" unicode="B" horiz-adv-x="739" 
d="M266 287v-133h167c50 0 74 27 74 66c0 38 -25 67 -74 67h-167zM266 540v-107h158c41 0 63 21 63 52s-22 55 -61 55h-160zM71 700h358c140 0 254 -62 254 -196c0 -53 -16 -108 -77 -136c65 -35 97 -100 97 -163c0 -157 -143 -204 -271 -205h-361v700z" />
    <glyph glyph-name="A" unicode="A" horiz-adv-x="797" 
d="M600 0l-46 115h-313l-46 -115h-210l314 700h200l313 -700h-212zM487 281l-89 223l-90 -223h179z" />
    <glyph glyph-name="C" unicode="C" horiz-adv-x="707" 
d="M581 221l116 -130c-79 -78 -175 -109 -281 -109c-275 0 -382 173 -383 363c-1 180 120 371 383 371c101 0 192 -35 271 -112l-122 -120c-50 48 -102 61 -149 61c-135 0 -188 -110 -187 -201s49 -194 187 -194c47 0 115 20 165 71z" />
    <glyph glyph-name="D" unicode="D" horiz-adv-x="771" 
d="M71 700h300c247 0 366 -152 366 -345s-115 -355 -366 -355h-300v700zM267 535v-368h104c126 0 170 94 170 190s-49 178 -170 178h-104z" />
    <glyph glyph-name="E" unicode="E" horiz-adv-x="672" 
d="M631 167v-167h-560v700h546v-166h-351v-100h331v-161h-331v-106h365z" />
    <glyph glyph-name="F" unicode="F" horiz-adv-x="641" 
d="M267 0h-196v700h537v-166h-341v-131h320v-162h-320v-241z" />
    <glyph glyph-name="G" unicode="G" horiz-adv-x="756" 
d="M690 607l-115 -114c-51 48 -113 61 -160 61c-114 0 -188 -68 -188 -205c0 -90 47 -201 188 -201c37 0 95 7 135 36v90h-177v155h342v-311c-44 -89 -166 -137 -301 -137c-277 0 -382 185 -382 368s120 371 383 371c97 0 183 -20 275 -113z" />
    <glyph glyph-name="H" unicode="H" horiz-adv-x="788" 
d="M717 -1h-196v265h-252v-265h-198v700h198v-266h252v266h196v-700z" />
    <glyph glyph-name="I" unicode="I" horiz-adv-x="339" 
d="M268 0h-197v700h197v-700z" />
    <glyph glyph-name="J" unicode="J" horiz-adv-x="728" 
d="M15 302h193c2 -105 60 -145 129 -145c83 0 132 51 132 146v231h-186v166h384v-398c0 -184 -117 -317 -332 -317c-202 0 -320 98 -320 317z" />
    <glyph glyph-name="K" unicode="K" horiz-adv-x="703" 
d="M690 700v-12l-284 -331c98 -108 211 -234 308 -345v-12h-245l-200 233v-233h-198v700h198v-230c60 74 125 156 184 230h237z" />
    <glyph glyph-name="L" unicode="L" horiz-adv-x="620" 
d="M71 700h198v-532h335v-168h-533v700z" />
    <glyph glyph-name="M" unicode="M" horiz-adv-x="923" 
d="M656 0v417l-179 -212h-35l-175 211v-416h-196v700h207l184 -237l184 237h206v-700h-196z" />
    <glyph glyph-name="N" unicode="N" horiz-adv-x="799" 
d="M239 700l296 -383c-5 84 -5 116 -6 143v240h199v-700h-168l-292 377l3 -153v-224h-200v700h168z" />
    <glyph glyph-name="O" unicode="O" horiz-adv-x="842" 
d="M810 350c0 -234 -159 -367 -389 -367c-229 0 -389 133 -389 367c0 230 160 367 389 367c230 0 389 -134 389 -367zM612 350c0 120 -75 198 -191 198c-113 0 -191 -82 -191 -198c0 -117 79 -198 191 -198c116 0 191 82 191 198z" />
    <glyph glyph-name="P" unicode="P" horiz-adv-x="709" 
d="M269 530v-174h142c55 0 83 40 83 86s-29 88 -83 88h-142zM411 189h-142v-189h-198v700h340c188 0 281 -118 281 -255c0 -143 -94 -254 -281 -256z" />
    <glyph glyph-name="Q" unicode="Q" horiz-adv-x="839" 
d="M806 351c0 -79 -22 -150 -59 -208l79 -81l-132 -130l-88 90c-55 -26 -117 -38 -187 -38c-229 0 -387 137 -387 367s158 366 387 366c230 0 387 -136 387 -366zM608 351c0 116 -73 198 -189 198c-112 0 -191 -82 -191 -198c0 -122 79 -198 191 -198c116 0 189 74 189 198z
" />
    <glyph glyph-name="R" unicode="R" horiz-adv-x="737" 
d="M719 12v-12h-218l-163 227h-69v-227h-198v700h342c179 0 272 -115 272 -241c0 -86 -30 -159 -148 -211zM413 542h-144v-168h146c52 0 75 39 75 81c0 44 -25 87 -77 87z" />
    <glyph glyph-name="S" unicode="S" horiz-adv-x="666" 
d="M600 631l-98 -125c-48 36 -103 48 -164 48c-48 0 -95 -15 -95 -52c0 -48 47 -55 116 -62c139 -15 284 -71 284 -232c0 -159 -150 -227 -307 -228c-126 -1 -216 21 -313 123l109 125c69 -67 146 -79 205 -79c65 0 110 23 110 62c0 35 -40 57 -117 64
c-153 14 -285 53 -285 227c0 148 145 212 293 212c105 0 187 -24 262 -83z" />
    <glyph glyph-name="T" unicode="T" horiz-adv-x="636" 
d="M219 0v537h-204v163h606v-163h-205v-537h-197z" />
    <glyph glyph-name="U" unicode="U" horiz-adv-x="782" 
d="M524 699h197v-391c1 -207 -125 -323 -330 -323s-330 111 -330 325v389h197v-389c0 -110 53 -156 133 -156s133 48 133 154v391z" />
    <glyph glyph-name="V" unicode="V" horiz-adv-x="749" 
d="M762 700l-291 -703h-193l-291 703h219l80 -210l88 -259l89 259l80 210h219z" />
    <glyph glyph-name="W" unicode="W" horiz-adv-x="1066" 
d="M1072 700l-255 -699h-161l-124 335l-120 -335h-160l-261 699h216l90 -246c17 -53 27 -110 37 -162l129 408h137l133 -408c10 53 23 109 39 167l84 241h216z" />
    <glyph glyph-name="X" unicode="X" horiz-adv-x="714" 
d="M292 593l65 -124l66 126l64 105h213v-11l-220 -337l235 -344v-8h-215l-65 97l-78 130l-79 -132l-64 -95h-215v8l235 344l-220 337v11h213z" />
    <glyph glyph-name="Y" unicode="Y" horiz-adv-x="722" 
d="M217 700l145 -240l151 240h223v-9l-278 -412v-279h-198v279l-266 413v8h223z" />
    <glyph glyph-name="Z" unicode="Z" horiz-adv-x="643" 
d="M42 540v160h561v-56l-306 -473h314v-171h-586v62l313 478h-296z" />
    <glyph glyph-name="a" unicode="a" horiz-adv-x="648" 
d="M412 441l9 53h173v-494h-170l-8 53c-42 -48 -108 -65 -163 -62c-145 9 -226 112 -226 256c0 146 96 258 240 258c70 0 119 -24 145 -64zM309 356c-55 0 -99 -40 -99 -109s44 -108 99 -108c62 0 102 50 102 108c0 66 -37 109 -102 109z" />
    <glyph glyph-name="b" unicode="b" horiz-adv-x="643" 
d="M238 700v-248c27 33 74 53 137 53c144 0 240 -107 240 -258c0 -156 -81 -247 -226 -256c-55 -3 -121 14 -163 62l-8 -53h-164v700h184zM333 356c-65 0 -99 -54 -99 -114c0 -52 37 -103 99 -103c55 0 99 39 99 108s-44 109 -99 109z" />
    <glyph glyph-name="c" unicode="c" horiz-adv-x="519" 
d="M406 184l105 -110c-59 -53 -130 -84 -204 -84c-144 0 -280 71 -280 256c0 180 138 259 277 259c71 0 142 -25 194 -77l-98 -106c-24 25 -52 36 -85 36c-70 0 -108 -51 -108 -113c0 -54 37 -102 107 -102c34 0 67 14 92 41z" />
    <glyph glyph-name="d" unicode="d" horiz-adv-x="643" 
d="M405 452v248h184v-700h-164l-8 53c-42 -48 -108 -65 -163 -62c-145 9 -226 100 -226 256c0 151 96 258 240 258c63 0 110 -20 137 -53zM310 356c-55 0 -99 -40 -99 -109s44 -108 99 -108c62 0 99 51 99 103c0 60 -34 114 -99 114z" />
    <glyph glyph-name="e" unicode="e" horiz-adv-x="590" 
d="M214 313h179c-5 78 -167 81 -179 0zM302 506c175 0 298 -116 256 -311h-345c13 -44 70 -63 110 -63c54 0 95 16 127 40l90 -101c-59 -55 -140 -82 -225 -82c-156 0 -288 77 -288 257s141 260 275 260z" />
    <glyph glyph-name="f" unicode="f" horiz-adv-x="428" 
d="M286 0h-184v343h-84v142h84v24c0 145 111 202 213 202c57 0 112 -18 149 -54l-56 -111c-20 17 -43 24 -67 24c-29 0 -55 -18 -55 -61v-24h128v-142h-128v-343z" />
    <glyph glyph-name="g" unicode="g" horiz-adv-x="615" 
d="M34 -35h173c-2 -77 44 -94 93 -94c48 0 91 23 91 71c0 36 -22 66 -89 66c-166 0 -275 96 -275 249c0 155 122 253 275 253c34 0 69 -7 102 -19c17 22 37 47 53 68l133 -95l-64 -76c36 -40 49 -89 47 -133c-1 -62 -33 -123 -90 -164c91 -52 97 -122 97 -149
c0 -160 -139 -220 -280 -220c-177 0 -276 92 -266 243zM302 359c-54 0 -96 -36 -96 -102c0 -59 42 -97 96 -97c49 0 93 31 93 97c0 56 -39 102 -93 102z" />
    <glyph glyph-name="h" unicode="h" horiz-adv-x="613" 
d="M54 700h186v-259c35 45 73 64 132 64c100 0 194 -65 194 -231v-274h-183v273c-2 56 -30 73 -67 73c-36 0 -76 -27 -77 -85v-261h-185v700z" />
    <glyph glyph-name="i" unicode="i" horiz-adv-x="293" 
d="M43 621c0 62 52 93 104 93c51 0 103 -31 103 -93c0 -61 -52 -92 -103 -92c-52 0 -104 31 -104 92zM54 0h185v486h-185v-486z" />
    <glyph glyph-name="j" unicode="j" horiz-adv-x="292" 
d="M43 621c0 62 52 93 104 93c51 0 103 -31 103 -93c0 -61 -52 -92 -103 -92c-52 0 -104 31 -104 92zM-35 -72l-35 -129c158 -77 308 -15 308 178v509h-184v-509c0 -61 -35 -79 -89 -49z" />
    <glyph glyph-name="k" unicode="k" horiz-adv-x="569" 
d="M54 700h185v-351l103 145h205v-8l-173 -224l201 -251v-11h-208l-128 172v-172h-185v700z" />
    <glyph glyph-name="l" unicode="l" horiz-adv-x="290" 
d="M54 701h182v-701h-182v701z" />
    <glyph glyph-name="m" unicode="m" horiz-adv-x="882" 
d="M535 0h-181v274c0 57 -19 76 -52 76c-31 0 -64 -25 -65 -79v-271h-183v494h155l13 -53c31 43 85 64 136 63c50 -1 98 -24 123 -70c41 51 96 71 164 71c107 0 189 -66 189 -230v-275h-184v274c0 52 -24 73 -51 73c-31 0 -64 -21 -64 -75v-272z" />
    <glyph glyph-name="n" unicode="n" 
d="M574 0h-184v273c0 61 -35 82 -69 82c-44 0 -85 -30 -85 -95v-260h-182v494h163l8 -54c42 49 104 67 156 66c104 -1 193 -56 193 -232v-274z" />
    <glyph glyph-name="o" unicode="o" horiz-adv-x="618" 
d="M309 505c146 0 282 -79 282 -259s-143 -258 -282 -258c-142 0 -282 78 -282 258c0 183 139 259 282 259zM309 139c62 0 102 47 102 107c0 57 -37 108 -102 108s-102 -51 -102 -108s37 -107 102 -107z" />
    <glyph glyph-name="p" unicode="p" horiz-adv-x="643" 
d="M238 42v-248h-184v700h164l8 -53c42 48 108 65 163 62c145 -9 226 -100 226 -256c0 -151 -96 -258 -240 -258c-63 0 -110 20 -137 53zM333 138c55 0 99 40 99 109s-44 108 -99 108c-62 0 -99 -51 -99 -103c0 -60 34 -114 99 -114z" />
    <glyph glyph-name="q" unicode="q" horiz-adv-x="643" 
d="M405 -206v248c-27 -33 -74 -53 -137 -53c-144 0 -240 107 -240 258c0 156 81 247 226 256c55 3 121 -14 163 -62l8 53h164v-700h-184zM310 138c65 0 99 54 99 114c0 52 -37 103 -99 103c-55 0 -99 -39 -99 -108s44 -109 99 -109z" />
    <glyph glyph-name="r" unicode="r" horiz-adv-x="472" 
d="M54 494h165l11 -54c26 46 72 66 120 66c50 0 98 -19 130 -53l-74 -133c-30 24 -52 30 -83 30c-46 0 -85 -28 -85 -93v-257h-184v494z" />
    <glyph glyph-name="s" unicode="s" horiz-adv-x="511" 
d="M19 52l60 134c75 -49 135 -53 175 -55c33 0 50 8 50 24s-16 24 -52 27c-96 3 -212 42 -212 162c0 119 112 162 228 162c80 0 154 -24 202 -60l-78 -110c-27 17 -84 31 -124 30c-26 0 -44 -6 -44 -24c0 -9 7 -23 37 -24c103 -3 227 -32 227 -163
c0 -122 -111 -168 -230 -168c-86 0 -183 24 -239 65z" />
    <glyph glyph-name="t" unicode="t" horiz-adv-x="432" 
d="M98 614l183 20v-143h111v-141h-112v-162c1 -35 21 -48 49 -48c18 0 39 7 54 17l40 -136c-42 -24 -91 -33 -142 -33c-98 0 -186 45 -183 200v162h-79v141h79v123z" />
    <glyph glyph-name="u" unicode="u" 
d="M48 494h184v-273c0 -61 35 -82 69 -82c44 0 85 27 85 92v263h182v-494h-163l-8 54c-42 -49 -104 -67 -156 -66c-104 1 -193 56 -193 232v274z" />
    <glyph glyph-name="v" unicode="v" horiz-adv-x="589" 
d="M187 494l54 -138l53 -160l50 160l53 138h195l-204 -497h-183l-213 497h195z" />
    <glyph glyph-name="w" unicode="w" horiz-adv-x="836" 
d="M363 494h111l87 -275l37 140l46 135h193l-181 -497h-169l-69 187l-68 -187h-171l-180 497h192l47 -136l38 -139z" />
    <glyph glyph-name="y" unicode="y" horiz-adv-x="582" 
d="M394 494h197l-306 -703h-192l100 231l-196 472h195l42 -118l54 -171l60 172z" />
    <glyph glyph-name="z" unicode="z" horiz-adv-x="495" 
d="M42 494h413v-62l-188 -274h197v-158h-441v57l197 291h-178v146z" />
    <glyph glyph-name="zero" unicode="0" horiz-adv-x="728" 
d="M241 392v-95c0 -107 53 -154 123 -154s124 47 124 154v95c0 103 -52 150 -122 150c-69 0 -125 -44 -125 -150zM47 297v96c0 228 147 316 319 316c175 0 315 -96 315 -316v-95c0 -224 -145 -317 -313 -317c-166 0 -321 87 -321 316z" />
    <glyph glyph-name="one" unicode="1" horiz-adv-x="474" 
d="M48 0v149h112v333l-106 -31v155l292 106v-563h104v-149h-402z" />
    <glyph glyph-name="two" unicode="2" horiz-adv-x="690" 
d="M251 479h-193c1 163 138 231 294 231c157 0 290 -72 290 -221c0 -174 -125 -232 -293 -232c-48 0 -114 -8 -114 -89h402v-168h-591v163c0 208 159 250 303 250c39 0 98 16 98 73c0 49 -47 67 -95 67c-58 0 -96 -21 -101 -74z" />
    <glyph glyph-name="three" unicode="3" horiz-adv-x="696" 
d="M351 287h-127v140h118c39 0 96 9 98 58c0 34 -37 64 -98 64c-52 0 -102 -19 -103 -69h-190c4 172 154 232 293 232c135 0 296 -58 296 -219c0 -53 -35 -110 -93 -135c81 -30 109 -90 109 -154c0 -164 -177 -217 -313 -217c-141 0 -303 64 -302 244h194
c1 -63 59 -84 118 -84c49 0 97 24 97 69c0 18 -5 71 -97 71z" />
    <glyph glyph-name="four" unicode="4" horiz-adv-x="691" 
d="M392 700h183v-423h75v-156h-75v-121h-186v121h-357l-13 164zM223 277h166v183z" />
    <glyph glyph-name="five" unicode="5" horiz-adv-x="665" 
d="M591 699v-161h-349v-83h94c154 0 293 -42 292 -231c0 -172 -156 -233 -288 -233c-167 0 -292 64 -293 241h193c0 -59 54 -82 98 -82c29 0 97 12 97 74c1 68 -63 76 -99 76h-277v399h532z" />
    <glyph glyph-name="six" unicode="6" horiz-adv-x="706" 
d="M652 497h-189c-4 42 -49 61 -105 61c-55 0 -110 -30 -110 -84v-66c40 30 106 48 162 48c148 0 258 -79 258 -227c0 -172 -151 -241 -305 -241c-151 0 -309 70 -309 243v243c0 166 149 238 303 238c158 0 295 -53 295 -215zM363 150c60 0 108 29 108 79
c0 54 -42 85 -107 85c-77 0 -114 -37 -114 -84c0 -41 39 -80 113 -80z" />
    <glyph glyph-name="seven" unicode="7" horiz-adv-x="593" 
d="M285 0h-214l265 538h-307v163h552l5 -89z" />
    <glyph glyph-name="eight" unicode="8" horiz-adv-x="721" 
d="M361 292c-68 0 -114 -27 -114 -74c0 -48 52 -74 113 -74c57 0 113 23 111 73c0 44 -40 75 -110 75zM42 218c1 37 26 110 93 145c-48 34 -71 85 -72 139c0 142 126 213 289 213c165 0 308 -71 308 -211c1 -54 -25 -104 -74 -134c74 -40 91 -113 92 -152
c3 -171 -137 -233 -318 -233s-322 61 -318 233zM356 422c129 0 130 143 1 143s-129 -143 -1 -143z" />
    <glyph glyph-name="nine" unicode="9" horiz-adv-x="708" 
d="M49 203h189c4 -42 49 -61 105 -61c55 0 117 30 117 90v60c-50 -40 -106 -48 -162 -48c-148 0 -258 79 -258 227c0 172 151 241 305 241c151 0 309 -70 309 -243v-236c0 -176 -155 -245 -309 -245c-158 0 -296 53 -296 215zM345 550c-60 0 -108 -29 -108 -79
c0 -54 42 -85 107 -85c77 0 114 37 114 84c0 41 -39 80 -113 80z" />
    <glyph glyph-name="_0004" horiz-adv-x="0" 
 />
    <glyph glyph-name="x" unicode="x" horiz-adv-x="566" 
d="M331 55l-48 84l-48 -84l-32 -55h-203l166 248l-150 237v9h198l34 -60l35 -70l35 69l34 61h198v-9l-149 -236l165 -249h-203z" />
    <glyph glyph-name="zcaron" unicode="&#x17e;" horiz-adv-x="495" 
d="M455 494h-413v-146h178l-197 -291v-57h441v158h-197l188 274v62zM312 547h-107l-143 142v7h148l48 -43l48 43h149v-7z" />
    <glyph glyph-name="dieresis" unicode="&#xa8;" horiz-adv-x="565" 
d="M38 626c0 56 46 86 93 86s95 -30 95 -86c0 -54 -48 -83 -95 -83s-93 29 -93 83zM328 626c0 56 47 86 95 86c46 0 94 -30 94 -86c0 -54 -48 -83 -94 -83c-48 0 -95 29 -95 83z" />
    <glyph glyph-name="acute" unicode="&#xb4;" horiz-adv-x="288" 
d="M276 701v-8l-109 -159h-161v6l77 161h193z" />
    <glyph glyph-name="dollar" unicode="$" horiz-adv-x="685" 
d="M259 -110v94c-84 10 -154 41 -227 119l109 125c69 -67 146 -79 205 -79c65 0 110 23 110 62c0 35 -40 57 -117 64c-153 14 -285 53 -285 227c0 118 92 183 205 204v91h168v-89c68 -10 127 -34 182 -77l-98 -125c-48 36 -103 48 -164 48c-48 0 -95 -15 -95 -52
c0 -48 47 -55 116 -62c139 -15 284 -71 284 -232c0 -131 -102 -200 -226 -221h1v-97h-168z" />
    <glyph glyph-name="Scaron" unicode="&#x160;" horiz-adv-x="666" 
d="M502 506l98 125c-75 59 -157 83 -262 83c-148 0 -293 -64 -293 -212c0 -174 132 -213 285 -227c77 -7 117 -29 117 -64c0 -39 -45 -62 -110 -62c-59 0 -136 12 -205 79l-109 -125c97 -102 187 -124 313 -123c157 1 307 69 307 228c0 161 -145 217 -284 232
c-69 7 -116 14 -116 62c0 37 47 52 95 52c61 0 116 -12 164 -48zM402 762h-115l-154 150v7h160l51 -44l52 44h160v-7z" />
    <glyph glyph-name="OE" unicode="&#x152;" horiz-adv-x="1023" 
d="M979 156v-156h-448c-36 -11 -83 -17 -130 -17c-250 0 -368 156 -368 370c0 213 123 364 368 364c43 0 83 -7 126 -16h444v-152h-302v-112h284v-150h-284v-131h310zM222 352c0 -117 64 -225 191 -225c29 0 59 3 88 16v416c-33 13 -61 16 -93 16
c-111 0 -186 -106 -186 -223z" />
    <glyph glyph-name="scaron" unicode="&#x161;" horiz-adv-x="511" 
d="M19 52l60 134c75 -49 135 -53 175 -55c33 0 50 8 50 24s-16 24 -52 27c-96 3 -212 42 -212 162c0 119 112 162 228 162c80 0 154 -24 202 -60l-78 -110c-27 17 -84 31 -124 30c-26 0 -44 -6 -44 -24c0 -9 7 -23 37 -24c103 -3 227 -32 227 -163
c0 -122 -111 -168 -230 -168c-86 0 -183 24 -239 65zM324 552h-103l-139 143v7h144l46 -42l47 42h143v-7z" />
    <glyph glyph-name="Ydieresis" unicode="&#x178;" horiz-adv-x="722" 
d="M125 847c0 56 46 86 93 86s95 -30 95 -86c0 -54 -48 -83 -95 -83s-93 29 -93 83zM415 847c0 56 47 86 95 86c46 0 94 -30 94 -86c0 -54 -48 -83 -94 -83c-48 0 -95 29 -95 83zM362 460l-145 240h-223v-8l266 -413v-279h198v279l278 412v9h-223z" />
    <glyph glyph-name="yen" unicode="&#xa5;" horiz-adv-x="797" 
d="M139 110v119h157v41h-157v127h80l-191 295v8h220l74 -123l74 -140l76 139l78 124h220v-9l-200 -294h80v-127h-160v-41h160v-119h-160v-110h-194v110h-157z" />
    <glyph glyph-name="onequarter" unicode="&#xbc;" horiz-adv-x="798" 
d="M584 372h136v-217h44v-95h-44v-60h-104v60h-193l-4 91zM616 155v104c-30 -37 -51 -67 -82 -104h82zM255 -1h-121l388 705h123zM42 323v97h61v156c-15 -3 -38 -8 -52 -10v92l160 42v-280h62v-97h-231z" />
    <glyph glyph-name="threequarters" unicode="&#xbe;" horiz-adv-x="842" 
d="M305 -6h-122l391 710h123zM629 372h135v-217h44v-95h-44v-60h-104v60h-193l-4 91zM660 155v104l-81 -104h81zM192 485h-60v77h56c35 0 48 14 48 30c0 17 -19 27 -49 27c-24 0 -49 -9 -52 -27h-93c0 82 80 117 148 117c69 0 150 -33 150 -118c0 -26 -15 -55 -41 -68
c36 -14 51 -45 51 -77c0 -94 -90 -115 -159 -115c-77 0 -155 35 -156 120h108c3 -21 25 -27 47 -27c25 0 49 9 49 31c0 17 -16 30 -47 30z" />
    <glyph glyph-name="onehalf" unicode="&#xbd;" horiz-adv-x="812" 
d="M248 -2h-119l388 706h121zM39 322v97h61v156c-15 -4 -36 -7 -51 -10v93l159 42v-281h63v-97h-232zM574 253h-105c1 80 74 124 150 124c89 0 157 -41 157 -125c0 -91 -79 -110 -141 -124c-32 -6 -60 -13 -65 -29h203v-104h-306v99c0 88 72 106 131 120c36 8 68 15 68 38
c0 20 -23 29 -44 29c-22 0 -44 -9 -48 -28z" />
    <glyph glyph-name="Zcaron" unicode="&#x17d;" horiz-adv-x="643" 
d="M42 700v-160h296l-313 -478v-62h586v171h-314l306 473v56h-561zM394 760h-114l-152 157v8h158l51 -47l51 47h158v-8z" />
    <glyph glyph-name="AE" unicode="&#xc6;" horiz-adv-x="925" 
d="M-26 0v11l415 689h480v-158h-243v-110h226v-153h-226v-122h258v-157h-440v105h-208l-63 -105h-199zM335 278h109l3 116l12 124z" />
    <glyph glyph-name="Edieresis" unicode="&#xcb;" horiz-adv-x="672" 
d="M631 0v167h-365v106h331v161h-331v100h351v166h-546v-700h560zM112 836c0 56 46 86 93 86s95 -30 95 -86c0 -54 -48 -83 -95 -83s-93 29 -93 83zM402 836c0 56 47 86 95 86c46 0 94 -30 94 -86c0 -54 -48 -83 -94 -83c-48 0 -95 29 -95 83z" />
    <glyph glyph-name="Ecircumflex" unicode="&#xca;" horiz-adv-x="672" 
d="M631 0v167h-365v106h331v161h-331v100h351v166h-546v-700h560zM296 912h114l152 -157v-8h-158l-51 47l-51 -47h-158v8z" />
    <glyph glyph-name="Eacute" unicode="&#xc9;" horiz-adv-x="672" 
d="M631 0v167h-365v106h331v161h-331v100h351v166h-546v-700h560zM530 918v-8l-109 -159h-161v6l77 161h193z" />
    <glyph glyph-name="Egrave" unicode="&#xc8;" horiz-adv-x="672" 
d="M631 167v-167h-560v700h546v-166h-351v-100h331v-161h-331v-106h365zM177 910v8h193l77 -161v-6h-161z" />
    <glyph glyph-name="Eth" unicode="&#xd0;" horiz-adv-x="773" 
d="M7 281v142h78v277h279c241 0 375 -148 375 -339c0 -198 -120 -361 -375 -361h-279v281h-78zM276 281v-119h88c122 0 178 76 179 199c1 122 -64 181 -179 181h-88v-119h121v-142h-121z" />
    <glyph glyph-name="ntilde" unicode="&#xf1;" 
d="M574 0h-184v273c0 61 -35 82 -69 82c-44 0 -85 -30 -85 -95v-260h-182v494h163l8 -54c42 49 104 67 156 66c104 -1 193 -56 193 -232v-274zM315 585c-39 25 -76 30 -94 -14l-91 65c31 93 123 117 193 74c40 -24 72 -28 97 18l87 -64c-31 -92 -105 -127 -192 -79z" />
    <glyph glyph-name="g.alt" horiz-adv-x="649" 
d="M310 356c-55 0 -99 -40 -99 -109c0 -66 44 -105 99 -105c62 0 102 49 102 104c0 66 -37 110 -102 110zM47 -38h183c6 -43 47 -60 90 -60c60 0 98 37 98 95v65c-39 -54 -109 -66 -164 -63c-145 9 -226 104 -226 248c0 149 96 258 240 258c70 0 119 -24 145 -64l9 53h173
v-492c0 -169 -119 -248 -275 -248c-154 0 -267 66 -273 208z" />
    <glyph glyph-name="gcircumflex.alt" horiz-adv-x="649" 
d="M310 356c65 0 102 -44 102 -110c0 -55 -40 -104 -102 -104c-55 0 -99 39 -99 105c0 69 44 109 99 109zM230 -38h-183c6 -142 119 -208 273 -208c156 0 275 79 275 248v492h-173l-9 -53c-26 40 -75 64 -145 64c-144 0 -240 -109 -240 -258c0 -144 81 -239 226 -248
c55 -3 125 9 164 63v-65c0 -58 -38 -95 -98 -95c-43 0 -84 17 -90 60zM282 716h114l152 -157v-8h-158l-51 47l-51 -47h-158v8z" />
    <glyph glyph-name="gbreve.alt" horiz-adv-x="649" 
d="M310 356c-55 0 -99 -40 -99 -109c0 -66 44 -105 99 -105c62 0 102 49 102 104c0 66 -37 110 -102 110zM47 -38h183c6 -43 47 -60 90 -60c60 0 98 37 98 95v65c-39 -54 -109 -66 -164 -63c-145 9 -226 104 -226 248c0 149 96 258 240 258c70 0 119 -24 145 -64l9 53h173
v-492c0 -169 -119 -248 -275 -248c-154 0 -267 66 -273 208zM155 712h137c0 -37 31 -42 42 -42c12 0 43 5 43 42h136c3 -103 -71 -165 -179 -165c-107 0 -182 62 -179 165z" />
    <glyph glyph-name="gdotaccent.alt" horiz-adv-x="649" 
d="M227 634c0 58 50 88 101 88c50 0 101 -30 101 -88c0 -57 -51 -86 -101 -86c-51 0 -101 29 -101 86zM310 356c65 0 102 -44 102 -110c0 -55 -40 -104 -102 -104c-55 0 -99 39 -99 105c0 69 44 109 99 109zM230 -38h-183c6 -142 119 -208 273 -208c156 0 275 79 275 248
v492h-173l-9 -53c-26 40 -75 64 -145 64c-144 0 -240 -109 -240 -258c0 -144 81 -239 226 -248c55 -3 125 9 164 63v-65c0 -58 -38 -95 -98 -95c-43 0 -84 17 -90 60z" />
    <glyph glyph-name="gcommaaccent.alt" horiz-adv-x="649" 
d="M310 356c65 0 102 -44 102 -110c0 -55 -40 -104 -102 -104c-55 0 -99 39 -99 105c0 69 44 109 99 109zM230 -38h-183c6 -142 119 -208 273 -208c156 0 275 79 275 248v492h-173l-9 -53c-26 40 -75 64 -145 64c-144 0 -240 -109 -240 -258c0 -144 81 -239 226 -248
c55 -3 125 9 164 63v-65c0 -58 -38 -95 -98 -95c-43 0 -84 17 -90 60zM234 633c0 31 19 85 58 161h97l-21 -98c43 -8 53 -36 53 -64c0 -50 -47 -77 -98 -77c-46 0 -89 26 -89 78z" />
    <glyph glyph-name="Abreve" unicode="&#x102;" horiz-adv-x="797" 
d="M600 0l-46 115h-313l-46 -115h-210l314 700h200l313 -700h-212zM487 281l-89 223l-90 -223h179zM215 904h140c0 -37 32 -42 43 -42c12 0 44 5 44 42h140c3 -102 -73 -161 -184 -161c-110 0 -186 59 -183 161z" />
    <glyph glyph-name="abreve" unicode="&#x103;" horiz-adv-x="648" 
d="M412 441l9 53h173v-494h-170l-8 53c-42 -48 -108 -65 -163 -62c-145 9 -226 112 -226 256c0 146 96 258 240 258c70 0 119 -24 145 -64zM309 356c-55 0 -99 -40 -99 -109s44 -108 99 -108c62 0 102 50 102 108c0 66 -37 109 -102 109zM153 714h138c0 -36 32 -40 43 -40
s43 4 43 40h138c3 -98 -72 -156 -181 -156s-184 58 -181 156z" />
    <glyph glyph-name="Aogonek" unicode="&#x104;" horiz-adv-x="797" 
d="M581 49l-27 66h-313l-46 -115h-210l314 700h200l313 -700c-142 14 -166 -24 -155 -53c11 -30 70 -21 91 -11l70 -89c-82 -73 -284 -63 -310 62c-13 64 17 117 73 140zM487 281l-89 223l-90 -223h179z" />
    <glyph glyph-name="aogonek" unicode="&#x105;" horiz-adv-x="648" 
d="M412 441l9 53h173v-533c-31 9 -103 6 -92 -39c7 -26 64 -17 82 -8l56 -77c-76 -59 -241 -52 -263 53c-11 53 13 95 57 115l-14 52c-40 -54 -112 -69 -167 -66c-145 9 -226 112 -226 256c0 146 96 258 240 258c70 0 119 -24 145 -64zM309 356c-55 0 -99 -40 -99 -109
s44 -108 99 -108c62 0 102 50 102 108c0 66 -37 109 -102 109z" />
    <glyph glyph-name="Cacute" unicode="&#x106;" horiz-adv-x="707" 
d="M697 91l-116 130c-50 -51 -118 -71 -165 -71c-138 0 -186 103 -187 194s52 201 187 201c47 0 99 -13 149 -61l122 120c-79 77 -170 112 -271 112c-263 0 -384 -191 -383 -371c1 -190 108 -363 383 -363c106 0 202 31 281 109zM566 919v-8l-103 -151h-153v6l73 153h183z
" />
    <glyph glyph-name="cacute" unicode="&#x107;" horiz-adv-x="519" 
d="M511 74l-105 110c-25 -27 -58 -41 -92 -41c-70 0 -107 48 -107 102c0 62 38 113 108 113c33 0 61 -11 85 -36l98 106c-52 52 -123 77 -194 77c-139 0 -277 -79 -277 -259c0 -185 136 -256 280 -256c74 0 145 31 204 84zM445 700v-7l-98 -144h-147v5l70 146h175z" />
    <glyph glyph-name="Ccircumflex" unicode="&#x108;" horiz-adv-x="707" 
d="M697 91l-116 130c-50 -51 -118 -71 -165 -71c-138 0 -186 103 -187 194s52 201 187 201c47 0 99 -13 149 -61l122 120c-79 77 -170 112 -271 112c-263 0 -384 -191 -383 -371c1 -190 108 -363 383 -363c106 0 202 31 281 109zM350 940h114l152 -157v-8h-158l-51 47
l-51 -47h-158v8z" />
    <glyph glyph-name="ccircumflex" unicode="&#x109;" horiz-adv-x="519" 
d="M511 74l-105 110c-25 -27 -58 -41 -92 -41c-70 0 -107 48 -107 102c0 62 38 113 108 113c33 0 61 -11 85 -36l98 106c-52 52 -123 77 -194 77c-139 0 -277 -79 -277 -259c0 -185 136 -256 280 -256c74 0 145 31 204 84zM246 703h106l141 -146v-7h-147l-47 43l-47 -43
h-146v7z" />
    <glyph glyph-name="Cdotaccent" unicode="&#x10a;" horiz-adv-x="707" 
d="M697 91l-116 130c-50 -51 -118 -71 -165 -71c-138 0 -186 103 -187 194s52 201 187 201c47 0 99 -13 149 -61l122 120c-79 77 -170 112 -271 112c-263 0 -384 -191 -383 -371c1 -190 108 -363 383 -363c106 0 202 31 281 109zM311 858c0 55 49 83 99 83
c49 0 99 -28 99 -83s-50 -83 -99 -83c-50 0 -99 28 -99 83z" />
    <glyph glyph-name="cdotaccent" unicode="&#x10b;" horiz-adv-x="519" 
d="M511 74l-105 110c-25 -27 -58 -41 -92 -41c-70 0 -107 48 -107 102c0 62 38 113 108 113c33 0 61 -11 85 -36l98 106c-52 52 -123 77 -194 77c-139 0 -277 -79 -277 -259c0 -185 136 -256 280 -256c74 0 145 31 204 84zM210 638c0 53 45 79 90 79s90 -26 90 -79
c0 -52 -45 -79 -90 -79s-90 27 -90 79z" />
    <glyph glyph-name="Ccaron" unicode="&#x10c;" horiz-adv-x="707" 
d="M697 91l-116 130c-50 -51 -118 -71 -165 -71c-138 0 -186 103 -187 194s52 201 187 201c47 0 99 -13 149 -61l122 120c-79 77 -170 112 -271 112c-263 0 -384 -191 -383 -371c1 -190 108 -363 383 -363c106 0 202 31 281 109zM469 761h-115l-152 146v7h158l52 -43l51 43
h158v-7z" />
    <glyph glyph-name="ccaron" unicode="&#x10d;" horiz-adv-x="519" 
d="M511 74l-105 110c-25 -27 -58 -41 -92 -41c-70 0 -107 48 -107 102c0 62 38 113 108 113c33 0 61 -11 85 -36l98 106c-52 52 -123 77 -194 77c-139 0 -277 -79 -277 -259c0 -185 136 -256 280 -256c74 0 145 31 204 84zM348 552h-106l-142 140v7h147l48 -42l47 42h148v-7
z" />
    <glyph glyph-name="Dcaron" unicode="&#x10e;" horiz-adv-x="771" 
d="M371 700h-300v-700h300c251 0 366 162 366 355s-119 345 -366 345zM267 167v368h104c121 0 170 -82 170 -178s-44 -190 -170 -190h-104zM398 764h-124l-165 145v7h172l55 -43l55 43h171v-7z" />
    <glyph glyph-name="dcaron" unicode="&#x10f;" horiz-adv-x="722" 
d="M405 452v248h184v-700h-164l-8 53c-42 -48 -108 -65 -163 -62c-145 9 -226 100 -226 256c0 151 96 258 240 258c63 0 110 -20 137 -53zM310 356c-55 0 -99 -40 -99 -109s44 -108 99 -108c62 0 99 51 99 103c0 60 -34 114 -99 114zM614 480l44 221h151l-77 -221h-118z" />
    <glyph glyph-name="Dcroat" unicode="&#x110;" horiz-adv-x="767" 
d="M17 285v138h59v277h300c248 0 354 -175 357 -348c3 -177 -106 -352 -357 -352h-300v285h-59zM269 285v-118h107c120 0 164 95 161 187c-3 87 -47 179 -161 179h-107v-110h97v-138h-97z" />
    <glyph glyph-name="dcroat" unicode="&#x111;" horiz-adv-x="643" 
d="M321 543v110h84v47h184v-47h62v-110h-62v-543h-164l-8 53c-42 -48 -108 -65 -163 -62c-145 9 -226 100 -226 256c0 151 96 258 240 258c63 0 110 -20 137 -53v91h-84zM310 356c-55 0 -99 -40 -99 -109s44 -108 99 -108c62 0 99 51 99 103c0 60 -34 114 -99 114z" />
    <glyph glyph-name="Ebreve" unicode="&#x114;" horiz-adv-x="672" 
d="M631 167v-167h-560v700h546v-166h-351v-100h331v-161h-331v-106h365zM174 901h135c0 -34 31 -39 42 -39s42 5 42 39h135c3 -95 -70 -151 -177 -151c-106 0 -180 56 -177 151z" />
    <glyph glyph-name="ebreve" unicode="&#x115;" horiz-adv-x="590" 
d="M214 313h179c-5 78 -167 81 -179 0zM302 506c175 0 298 -116 256 -311h-345c13 -44 70 -63 110 -63c54 0 95 16 127 40l90 -101c-59 -55 -140 -82 -225 -82c-156 0 -288 77 -288 257s141 260 275 260zM138 710h136c0 -36 31 -40 43 -40c11 0 42 4 42 40h137
c3 -99 -71 -157 -179 -157s-183 58 -179 157z" />
    <glyph glyph-name="Edotaccent" unicode="&#x116;" horiz-adv-x="672" 
d="M631 0v167h-365v106h331v161h-331v100h351v166h-546v-700h560zM257 845c0 56 52 85 105 85c52 0 105 -29 105 -85c0 -57 -53 -85 -105 -85c-53 0 -105 28 -105 85z" />
    <glyph glyph-name="edotaccent" unicode="&#x117;" horiz-adv-x="590" 
d="M214 313h179c-5 78 -167 81 -179 0zM302 506c175 0 298 -116 256 -311h-345c13 -44 70 -63 110 -63c54 0 95 16 127 40l90 -101c-59 -55 -140 -82 -225 -82c-156 0 -288 77 -288 257s141 260 275 260zM208 631c0 57 50 86 101 86c50 0 101 -29 101 -86s-51 -85 -101 -85
c-51 0 -101 28 -101 85z" />
    <glyph glyph-name="Eogonek" unicode="&#x118;" horiz-adv-x="672" 
d="M631 167v-167c-95 10 -119 -26 -105 -51s67 -13 86 -3l68 -84c-68 -58 -225 -83 -286 -4c-34 44 -19 112 31 142h-354v700h546v-166h-351v-100h331v-161h-331v-106h365z" />
    <glyph glyph-name="eogonek" unicode="&#x119;" horiz-adv-x="591" 
d="M302 506c175 0 298 -116 256 -311h-345c13 -44 70 -63 110 -63c54 0 95 16 127 40l90 -101c-38 -35 -84 -59 -134 -71c-20 -7 -32 -21 -28 -39c8 -28 68 -28 96 -5l63 -80c-60 -74 -231 -73 -278 12c-19 38 -9 79 26 102c-142 10 -258 87 -258 256c0 180 141 260 275 260
zM214 313h179c-5 78 -167 81 -179 0z" />
    <glyph glyph-name="Ecaron" unicode="&#x11a;" horiz-adv-x="672" 
d="M631 0v167h-365v106h331v161h-331v100h351v166h-546v-700h560zM413 750h-115l-153 143v8h159l52 -43l51 43h159v-8z" />
    <glyph glyph-name="ecaron" unicode="&#x11b;" horiz-adv-x="590" 
d="M214 313h179c-5 78 -167 81 -179 0zM302 506c175 0 298 -116 256 -311h-345c13 -44 70 -63 110 -63c54 0 95 16 127 40l90 -101c-59 -55 -140 -82 -225 -82c-156 0 -288 77 -288 257s141 260 275 260zM365 550h-113l-152 142v7h158l50 -43l51 43h158v-7z" />
    <glyph glyph-name="Gcircumflex" unicode="&#x11c;" horiz-adv-x="756" 
d="M575 493l115 114c-92 93 -178 113 -275 113c-263 0 -383 -188 -383 -371s105 -368 382 -368c135 0 257 48 301 137v311h-342v-155h177v-90c-40 -29 -98 -36 -135 -36c-141 0 -188 111 -188 201c0 137 74 205 188 205c47 0 109 -13 160 -61zM347 924h118l158 -150v-7h-164
l-53 45l-53 -45h-164v7z" />
    <glyph glyph-name="gcircumflex" unicode="&#x11d;" horiz-adv-x="610" 
d="M34 -35h173c-2 -77 44 -94 93 -94c48 0 91 23 91 71c0 36 -22 66 -89 66c-166 0 -275 96 -275 249c0 155 122 253 275 253c34 0 69 -7 102 -19l43 58l132 -97l-53 -64c36 -40 49 -89 47 -133c-1 -62 -33 -123 -90 -164c91 -52 97 -122 97 -149
c0 -160 -139 -220 -280 -220c-177 0 -276 92 -266 243zM302 359c-54 0 -96 -36 -96 -102c0 -59 42 -97 96 -97c49 0 93 31 93 97c0 56 -39 102 -93 102zM253 731h123l164 -153v-7h-170l-56 45l-55 -45h-171v7z" />
    <glyph glyph-name="Gbreve" unicode="&#x11e;" horiz-adv-x="756" 
d="M690 607l-115 -114c-51 48 -113 61 -160 61c-114 0 -188 -68 -188 -205c0 -90 47 -201 188 -201c37 0 95 7 135 36v90h-177v155h342v-311c-44 -89 -166 -137 -301 -137c-277 0 -382 185 -382 368s120 371 383 371c97 0 183 -20 275 -113zM221 927h141
c0 -37 32 -42 44 -42c11 0 44 5 44 42h141c3 -101 -73 -160 -185 -160s-189 59 -185 160z" />
    <glyph glyph-name="gbreve" unicode="&#x11f;" horiz-adv-x="615" 
d="M34 -35h173c-2 -77 44 -94 93 -94c48 0 91 23 91 71c0 36 -22 66 -89 66c-166 0 -275 96 -275 249c0 155 122 253 275 253c34 0 69 -7 102 -19c17 22 37 47 53 68l133 -95l-64 -76c36 -40 49 -89 47 -133c-1 -62 -33 -123 -90 -164c91 -52 97 -122 97 -149
c0 -160 -139 -220 -280 -220c-177 0 -276 92 -266 243zM302 359c-54 0 -96 -36 -96 -102c0 -59 42 -97 96 -97c49 0 93 31 93 97c0 56 -39 102 -93 102zM115 720h141c0 -36 32 -41 44 -41c11 0 44 5 44 41h141c3 -100 -73 -158 -185 -158s-189 58 -185 158z" />
    <glyph glyph-name="Gdotaccent" unicode="&#x120;" horiz-adv-x="756" 
d="M575 493l115 114c-92 93 -178 113 -275 113c-263 0 -383 -188 -383 -371s105 -368 382 -368c135 0 257 48 301 137v311h-342v-155h177v-90c-40 -29 -98 -36 -135 -36c-141 0 -188 111 -188 201c0 137 74 205 188 205c47 0 109 -13 160 -61zM308 858c0 59 52 89 105 89
c51 0 104 -30 104 -89s-53 -89 -104 -89c-53 0 -105 30 -105 89z" />
    <glyph glyph-name="gdotaccent" unicode="&#x121;" horiz-adv-x="615" 
d="M34 -35h173c-2 -77 44 -94 93 -94c48 0 91 23 91 71c0 36 -22 66 -89 66c-166 0 -275 96 -275 249c0 155 122 253 275 253c34 0 69 -7 102 -19c17 22 37 47 53 68l133 -95l-64 -76c36 -40 49 -89 47 -133c-1 -62 -33 -123 -90 -164c91 -52 97 -122 97 -149
c0 -160 -139 -220 -280 -220c-177 0 -276 92 -266 243zM302 359c-54 0 -96 -36 -96 -102c0 -59 42 -97 96 -97c49 0 93 31 93 97c0 56 -39 102 -93 102zM202 650c0 59 52 89 104 89s104 -30 104 -89s-52 -89 -104 -89s-104 30 -104 89z" />
    <glyph glyph-name="Gcommaaccent" unicode="&#x122;" horiz-adv-x="756" 
d="M690 607l-115 -114c-51 48 -113 61 -160 61c-114 0 -188 -68 -188 -205c0 -90 47 -201 188 -201c37 0 95 7 135 36v90h-177v155h342v-311c-44 -89 -166 -137 -301 -137c-277 0 -382 185 -382 368s120 371 383 371c97 0 183 -20 275 -113zM500 -141
c0 -32 -19 -86 -58 -164h-97l22 100c-44 8 -54 37 -54 65c0 52 48 79 98 79c46 0 89 -26 89 -80z" />
    <glyph glyph-name="gcommaaccent" unicode="&#x123;" horiz-adv-x="615" 
d="M209 652c2 49 31 98 52 146h117l-17 -88c34 -10 50 -26 49 -56c-1 -55 -52 -81 -100 -81c-50 0 -102 28 -101 79zM34 -35h173c-2 -77 44 -94 93 -94c48 0 91 23 91 71c0 36 -22 66 -89 66c-166 0 -275 96 -275 249c0 155 122 253 275 253c34 0 69 -7 102 -19
c17 22 37 47 53 68l133 -95l-64 -76c36 -40 49 -89 47 -133c-1 -62 -33 -123 -90 -164c91 -52 97 -122 97 -149c0 -160 -139 -220 -280 -220c-177 0 -276 92 -266 243zM302 359c-54 0 -96 -36 -96 -102c0 -59 42 -97 96 -97c49 0 93 31 93 97c0 56 -39 102 -93 102z" />
    <glyph glyph-name="Hcircumflex" unicode="&#x124;" horiz-adv-x="788" 
d="M521 0h196v700h-196v-266h-252v266h-198v-700h198v265h252v-265zM329 926h120l160 -156v-8h-166l-54 46l-53 -46h-167v8z" />
    <glyph glyph-name="hcircumflex" unicode="&#x125;" horiz-adv-x="613" 
d="M240 700h-186v-700h185v261c1 58 41 85 77 85c37 0 65 -17 67 -73v-273h183v274c0 166 -94 231 -194 231c-59 0 -97 -19 -132 -64v259zM248 911h109l146 -152v-7h-152l-49 45l-49 -45h-151v7z" />
    <glyph glyph-name="Hbar" unicode="&#x126;" horiz-adv-x="798" 
d="M722 -1h-196v260h-252v-260h-198v502h-59v113h59v85h198v-85h252v85h196v-85h62v-113h-62v-502zM274 427h252v74h-252v-74z" />
    <glyph glyph-name="hbar" unicode="&#x127;" horiz-adv-x="613" 
d="M-1 539v111h55v50h186v-50h81v-111h-81v-98c35 45 73 64 132 64c100 0 194 -65 194 -231v-274h-183v273c-2 56 -30 73 -67 73c-36 0 -76 -27 -77 -85v-261h-185v539h-55z" />
    <glyph glyph-name="Itilde" unicode="&#x128;" horiz-adv-x="339" 
d="M268 0h-197v700h197v-700zM167 782c-43 24 -83 29 -102 -14l-99 65c33 93 134 117 210 75c42 -25 77 -29 104 17l94 -64c-34 -92 -114 -128 -207 -79z" />
    <glyph glyph-name="itilde" unicode="&#x129;" horiz-adv-x="292" 
d="M238 0h-184v494h184v-494zM146 569c-35 24 -67 29 -82 -14l-79 63c27 91 107 115 168 73c34 -23 62 -27 83 17l75 -62c-27 -90 -91 -124 -165 -77z" />
    <glyph glyph-name="Ibreve" unicode="&#x12c;" horiz-adv-x="339" 
d="M268 0h-197v700h197v-700zM-7 923h134c0 -39 31 -44 42 -44s42 5 42 44h134c3 -107 -70 -170 -176 -170s-179 63 -176 170z" />
    <glyph glyph-name="ibreve" unicode="&#x12d;" horiz-adv-x="292" 
d="M238 0h-184v494h184v-494zM-7 701h118c0 -37 27 -41 37 -41c9 0 37 4 37 41h118c2 -101 -62 -160 -155 -160c-94 0 -158 59 -155 160z" />
    <glyph glyph-name="Iogonek" unicode="&#x12e;" horiz-adv-x="339" 
d="M180 -45c7 -28 62 -19 81 -10l62 -83c-66 -61 -235 -82 -279 17c-19 43 -6 95 27 124v697h197v-700h-40c-31 -2 -55 -20 -48 -45z" />
    <glyph glyph-name="iogonek" unicode="&#x12f;" horiz-adv-x="294" 
d="M44 621c0 62 52 93 104 93c51 0 103 -31 103 -93c0 -61 -52 -92 -103 -92c-52 0 -104 31 -104 92zM241 -15l-1 15v486h-185v-476c-33 -27 -45 -57 -38 -102c18 -115 200 -115 269 -53l-55 82c-25 -17 -80 -19 -87 7c-11 43 60 49 97 41z" />
    <glyph glyph-name="Idotaccent" unicode="&#x130;" horiz-adv-x="339" 
d="M71 0h197v700h-197v-700zM57 835c0 58 54 87 109 87c54 0 109 -29 109 -87c0 -59 -55 -88 -109 -88c-55 0 -109 29 -109 88z" />
    <glyph glyph-name="IJ" unicode="&#x132;" horiz-adv-x="1067" 
d="M268 0h-197v700h197v-700zM354 302h193c2 -105 60 -145 129 -145c83 0 132 51 132 146v231h-186v166h384v-398c0 -184 -117 -317 -332 -317c-202 0 -320 98 -320 317z" />
    <glyph glyph-name="ij" unicode="&#x133;" horiz-adv-x="585" 
d="M43 621c0 62 52 93 104 93c51 0 103 -31 103 -93c0 -61 -52 -92 -103 -92c-52 0 -104 31 -104 92zM54 0h185v486h-185v-486zM336 621c0 62 52 93 104 93c51 0 103 -31 103 -93c0 -61 -52 -92 -103 -92c-52 0 -104 31 -104 92zM258 -72l-35 -129c158 -77 308 -15 308 178
v509h-184v-509c0 -61 -35 -79 -89 -49z" />
    <glyph glyph-name="Jcircumflex" unicode="&#x134;" horiz-adv-x="728" 
d="M208 302h-193c0 -219 118 -317 320 -317c215 0 332 133 332 317v398h-384v-166h186v-231c0 -95 -49 -146 -132 -146c-69 0 -127 40 -129 145zM375 924h119l158 -164v-9h-164l-53 49l-53 -49h-165v9z" />
    <glyph glyph-name="jcircumflex" unicode="&#x135;" horiz-adv-x="292" 
d="M72 723h101l135 -172v-9h-140l-46 52l-45 -52h-141v9zM-35 -72l-35 -129c158 -77 308 -15 308 178v509h-184v-509c0 -61 -35 -79 -89 -49z" />
    <glyph glyph-name="Kcommaaccent" unicode="&#x136;" horiz-adv-x="703" 
d="M690 700v-12l-284 -331c98 -108 211 -234 308 -345v-12h-245l-200 233v-233h-198v700h198v-230c60 74 125 156 184 230h237zM449 -126c0 -31 -20 -85 -60 -162h-101l22 99c-45 8 -56 37 -56 64c0 51 50 78 102 78c48 0 93 -26 93 -79z" />
    <glyph glyph-name="kcommaaccent" unicode="&#x137;" horiz-adv-x="569" 
d="M54 700h185v-351l103 145h205v-8l-173 -224l201 -251v-11h-208l-128 172v-172h-185v700zM387 -125c0 -32 -19 -86 -58 -164h-96l21 100c-43 8 -53 37 -53 65c0 52 47 79 97 79c46 0 89 -26 89 -80z" />
    <glyph glyph-name="kgreenlandic" unicode="&#x138;" horiz-adv-x="569" 
d="M54 495h185v-146l103 145h205v-8l-173 -224l201 -251v-11h-208l-128 172v-172h-185v495z" />
    <glyph glyph-name="Lacute" unicode="&#x139;" horiz-adv-x="620" 
d="M269 700h-198v-700h533v168h-335v532zM354 910v-7l-110 -146h-163v6l78 147h195z" />
    <glyph glyph-name="lacute" unicode="&#x13a;" horiz-adv-x="290" 
d="M236 701h-182v-701h182v701zM320 906v-7l-104 -142h-153v5l73 144h184z" />
    <glyph glyph-name="Lcommaaccent" unicode="&#x13b;" horiz-adv-x="620" 
d="M71 700h198v-532h335v-168h-533v700zM430 -127c0 -33 -19 -89 -58 -169h-96l21 103c-43 8 -53 38 -53 67c0 53 47 81 97 81c46 0 89 -27 89 -82z" />
    <glyph glyph-name="lcommaaccent" unicode="&#x13c;" horiz-adv-x="290" 
d="M54 701h182v-701h-182v701zM236 -132c0 -33 -19 -89 -58 -169h-96l21 103c-43 8 -53 38 -53 67c0 53 47 81 97 81c46 0 89 -27 89 -82z" />
    <glyph glyph-name="Lcaron" unicode="&#x13d;" 
d="M71 700h198v-532h335v-168h-533v700zM379 467l47 235h161l-82 -235h-126z" />
    <glyph glyph-name="lcaron" unicode="&#x13e;" horiz-adv-x="383" 
d="M54 702h182v-702h-182v702zM261 464l47 236h161l-82 -236h-126z" />
    <glyph glyph-name="Ldot" unicode="&#x13f;" horiz-adv-x="620" 
d="M71 700h198v-532h335v-168h-533v700zM446 275c-138 0 -139 190 0 190c138 0 139 -190 0 -190z" />
    <glyph glyph-name="ldot" unicode="&#x140;" horiz-adv-x="481" 
d="M54 701h182v-701h-182v701zM386 245c-138 0 -139 190 0 190c138 0 139 -190 0 -190z" />
    <glyph glyph-name="Nacute" unicode="&#x143;" horiz-adv-x="799" 
d="M535 317l-296 383h-168v-700h200v224l-3 153l292 -377h168v700h-199v-240c1 -27 1 -59 6 -143zM573 919v-8l-115 -155h-170v6l81 157h204z" />
    <glyph glyph-name="nacute" unicode="&#x144;" 
d="M390 0h184v274c0 176 -89 231 -193 232c-52 1 -114 -17 -156 -66l-8 54h-163v-494h182v260c0 65 41 95 85 95c34 0 69 -21 69 -82v-273zM478 712v-7l-103 -150h-151v6l72 151h182z" />
    <glyph glyph-name="Ncommaaccent" unicode="&#x145;" horiz-adv-x="799" 
d="M239 700l296 -383c-5 84 -5 116 -6 143v240h199v-700h-168l-292 377l3 -153v-224h-200v700h168zM502 -115c0 -33 -19 -89 -58 -169h-96l21 103c-43 8 -53 38 -53 67c0 53 47 81 97 81c46 0 89 -27 89 -82z" />
    <glyph glyph-name="ncommaaccent" unicode="&#x146;" 
d="M574 0h-184v273c0 61 -35 82 -69 82c-44 0 -85 -30 -85 -95v-260h-182v494h163l8 -54c42 49 104 67 156 66c104 -1 193 -56 193 -232v-274zM405 -121c0 -33 -19 -89 -58 -169h-96l21 103c-43 8 -53 38 -53 67c0 53 47 81 97 81c46 0 89 -27 89 -82z" />
    <glyph glyph-name="Ncaron" unicode="&#x147;" horiz-adv-x="799" 
d="M535 317l-296 383h-168v-700h200v224l-3 153l292 -377h168v700h-199v-240c1 -27 1 -59 6 -143zM454 753h-113l-152 145v7h158l50 -43l51 43h158v-7z" />
    <glyph glyph-name="ncaron" unicode="&#x148;" 
d="M390 0h184v274c0 176 -89 231 -193 232c-52 1 -114 -17 -156 -66l-8 54h-163v-494h182v260c0 65 41 95 85 95c34 0 69 -21 69 -82v-273zM370 553h-109l-146 143v8h151l49 -43l49 43h151v-8z" />
    <glyph glyph-name="napostrophe" unicode="&#x149;" 
d="M574 0h-184v273c0 61 -35 82 -69 82c-44 0 -85 -30 -85 -95v-260h-182v494h163l8 -54c42 49 104 67 156 66c104 -1 193 -56 193 -232v-274z" />
    <glyph glyph-name="Eng" unicode="&#x14a;" horiz-adv-x="794" 
d="M526 700h197v-723c0 -193 -118 -256 -308 -178l35 129c54 -30 93 -12 93 49v50c-153 194 -201 248 -274 339v-366h-198v700h165l290 -369v369z" />
    <glyph glyph-name="eng" unicode="&#x14b;" 
d="M266 -198l35 126c54 -30 91 -6 91 49v296c0 61 -37 82 -71 82c-44 0 -85 -30 -85 -95v-260h-182v494h163l8 -54c42 49 104 67 156 66c104 -1 193 -56 193 -232v-299c0 -187 -150 -250 -308 -173z" />
    <glyph glyph-name="Obreve" unicode="&#x14e;" horiz-adv-x="842" 
d="M810 350c0 -234 -159 -367 -389 -367c-229 0 -389 133 -389 367c0 230 160 367 389 367c230 0 389 -134 389 -367zM612 350c0 120 -75 198 -191 198c-113 0 -191 -82 -191 -198c0 -117 79 -198 191 -198c116 0 191 82 191 198zM237 919h142c0 -36 33 -41 45 -41
c11 0 44 5 44 41h143c3 -100 -75 -158 -187 -158c-113 0 -190 58 -187 158z" />
    <glyph glyph-name="obreve" unicode="&#x14f;" horiz-adv-x="618" 
d="M309 505c146 0 282 -79 282 -259s-143 -258 -282 -258c-142 0 -282 78 -282 258c0 183 139 259 282 259zM309 139c62 0 102 47 102 107c0 57 -37 108 -102 108s-102 -51 -102 -108s37 -107 102 -107zM134 707h133c0 -36 30 -40 41 -40s42 4 42 40h133
c3 -98 -70 -155 -175 -155s-177 57 -174 155z" />
    <glyph glyph-name="Ohungarumlaut" unicode="&#x150;" horiz-adv-x="842" 
d="M810 350c0 233 -159 367 -389 367c-229 0 -389 -137 -389 -367c0 -234 160 -367 389 -367c230 0 389 133 389 367zM612 350c0 -116 -75 -198 -191 -198c-112 0 -191 81 -191 198c0 116 78 198 191 198c116 0 191 -78 191 -198zM321 912h170v-7l-103 -142h-166zM548 912
h170v-7l-103 -142h-166z" />
    <glyph glyph-name="ohungarumlaut" unicode="&#x151;" horiz-adv-x="618" 
d="M309 505c-143 0 -282 -76 -282 -259c0 -180 140 -258 282 -258c139 0 282 78 282 258s-136 259 -282 259zM309 139c-65 0 -102 50 -102 107s37 108 102 108s102 -51 102 -108c0 -60 -40 -107 -102 -107zM218 696h160v-7l-97 -137h-156zM432 696h160v-7l-97 -137h-156z
" />
    <glyph glyph-name="Racute" unicode="&#x154;" horiz-adv-x="737" 
d="M719 0v12l-182 236c118 52 148 125 148 211c0 126 -93 241 -272 241h-342v-700h198v227h69l163 -227h218zM269 542h144c52 0 77 -43 77 -87c0 -42 -23 -81 -75 -81h-146v168zM517 923v-8l-109 -152h-161v5l77 155h193z" />
    <glyph glyph-name="racute" unicode="&#x155;" horiz-adv-x="472" 
d="M219 494h-165v-494h184v257c0 65 39 93 85 93c31 0 53 -6 83 -30l74 133c-32 34 -80 53 -130 53c-48 0 -94 -20 -120 -66zM399 705v-7l-102 -139h-149v5l71 141h180z" />
    <glyph glyph-name="Rcommaaccent" unicode="&#x156;" horiz-adv-x="737" 
d="M719 12v-12h-218l-163 227h-69v-227h-198v700h342c179 0 272 -115 272 -241c0 -86 -30 -159 -148 -211zM413 542h-144v-168h146c52 0 75 39 75 81c0 44 -25 87 -77 87zM466 -123c0 -33 -19 -89 -58 -169h-96l21 103c-43 8 -53 38 -53 67c0 53 47 81 97 81
c46 0 89 -27 89 -82z" />
    <glyph glyph-name="rcommaaccent" unicode="&#x157;" horiz-adv-x="472" 
d="M54 494h165l11 -54c26 46 72 66 120 66c50 0 98 -19 130 -53l-74 -133c-30 24 -52 30 -83 30c-46 0 -85 -28 -85 -93v-257h-184v494zM235 -127c0 -32 -19 -86 -56 -164h-93l20 100c-42 8 -51 37 -51 65c0 52 45 79 94 79c44 0 86 -26 86 -80z" />
    <glyph glyph-name="Rcaron" unicode="&#x158;" horiz-adv-x="737" 
d="M719 0v12l-182 236c118 52 148 125 148 211c0 126 -93 241 -272 241h-342v-700h198v227h69l163 -227h218zM269 542h144c52 0 77 -43 77 -87c0 -42 -23 -81 -75 -81h-146v168zM399 755h-115l-154 151v8h160l51 -46l52 46h159v-8z" />
    <glyph glyph-name="rcaron" unicode="&#x159;" horiz-adv-x="472" 
d="M219 494h-165v-494h184v257c0 65 39 93 85 93c31 0 53 -6 83 -30l74 133c-32 34 -80 53 -130 53c-48 0 -94 -20 -120 -66zM313 552h-107l-142 143v7h148l47 -42l48 42h148v-7z" />
    <glyph glyph-name="Sacute" unicode="&#x15a;" horiz-adv-x="666" 
d="M502 506l98 125c-75 59 -157 83 -262 83c-148 0 -293 -64 -293 -212c0 -174 132 -213 285 -227c77 -7 117 -29 117 -64c0 -39 -45 -62 -110 -62c-59 0 -136 12 -205 79l-109 -125c97 -102 187 -124 313 -123c157 1 307 69 307 228c0 161 -145 217 -284 232
c-69 7 -116 14 -116 62c0 37 47 52 95 52c61 0 116 -12 164 -48zM504 929v-8l-108 -157h-160v6l76 159h192z" />
    <glyph glyph-name="sacute" unicode="&#x15b;" horiz-adv-x="511" 
d="M19 52l60 134c75 -49 135 -53 175 -55c33 0 50 8 50 24s-16 24 -52 27c-96 3 -212 42 -212 162c0 119 112 162 228 162c80 0 154 -24 202 -60l-78 -110c-27 17 -84 31 -124 30c-26 0 -44 -6 -44 -24c0 -9 7 -23 37 -24c103 -3 227 -32 227 -163
c0 -122 -111 -168 -230 -168c-86 0 -183 24 -239 65zM428 709v-7l-100 -146h-148v5l70 148h178z" />
    <glyph glyph-name="Scircumflex" unicode="&#x15c;" horiz-adv-x="666" 
d="M502 506l98 125c-75 59 -157 83 -262 83c-148 0 -293 -64 -293 -212c0 -174 132 -213 285 -227c77 -7 117 -29 117 -64c0 -39 -45 -62 -110 -62c-59 0 -136 12 -205 79l-109 -125c97 -102 187 -124 313 -123c157 1 307 69 307 228c0 161 -145 217 -284 232
c-69 7 -116 14 -116 62c0 37 47 52 95 52c61 0 116 -12 164 -48zM290 921h114l152 -157v-8h-158l-51 47l-51 -47h-158v8z" />
    <glyph glyph-name="scircumflex" unicode="&#x15d;" horiz-adv-x="511" 
d="M19 52l60 134c75 -49 135 -53 175 -55c33 0 50 8 50 24s-16 24 -52 27c-96 3 -212 42 -212 162c0 119 112 162 228 162c80 0 154 -24 202 -60l-78 -110c-27 17 -84 31 -124 30c-26 0 -44 -6 -44 -24c0 -9 7 -23 37 -24c103 -3 227 -32 227 -163
c0 -122 -111 -168 -230 -168c-86 0 -183 24 -239 65zM218 708h109l145 -153v-8h-151l-49 46l-48 -46h-151v8z" />
    <glyph glyph-name="Scedilla" unicode="&#x15e;" horiz-adv-x="668" 
d="M601 631l-98 -125c-48 36 -103 48 -164 48c-48 0 -95 -15 -95 -52c0 -48 47 -55 116 -62c139 -15 284 -71 284 -232c0 -142 -119 -210 -255 -225l-10 -28c92 -9 126 -71 105 -137c-39 -123 -242 -125 -316 -36l67 68c31 -27 102 -42 114 -1c9 33 -53 54 -90 31l-29 20
l33 83c-89 8 -162 39 -239 120l109 125c69 -67 146 -79 205 -79c65 0 110 23 110 62c0 35 -40 57 -117 64c-153 14 -285 53 -285 227c0 148 145 212 293 212c105 0 187 -24 262 -83z" />
    <glyph glyph-name="scedilla" unicode="&#x15f;" horiz-adv-x="513" 
d="M20 52l60 134c75 -49 135 -53 175 -55c33 0 50 8 50 24s-16 24 -52 27c-96 3 -212 42 -212 162c0 119 112 162 228 162c80 0 154 -24 202 -60l-78 -110c-27 17 -84 31 -124 30c-26 0 -44 -6 -44 -24c0 -9 7 -23 37 -24c103 -3 227 -32 227 -163
c0 -103 -80 -152 -176 -164l-14 -36c85 -7 118 -67 97 -128c-39 -112 -223 -111 -288 -29l60 62c26 -24 95 -38 105 -3c8 30 -48 50 -82 29l-28 19l36 86c-68 8 -136 29 -179 61z" />
    <glyph glyph-name="Tcommaaccent" unicode="&#x162;" horiz-adv-x="636" 
d="M141 -211l63 66c29 -29 108 -44 119 -2c11 41 -61 57 -96 33l-28 21l21 93l-1 537h-204v163h606v-163h-205v-537h-56l-9 -36c88 -9 122 -75 100 -143c-40 -125 -245 -127 -310 -32z" />
    <glyph glyph-name="tcommaaccent" unicode="&#x163;" horiz-adv-x="434" 
d="M99 614l183 20v-143h111v-141h-112v-162c1 -35 21 -48 49 -48c18 0 39 7 54 17l40 -136c-38 -21 -82 -31 -127 -33l-13 -32c88 -9 122 -68 100 -130c-45 -120 -228 -115 -301 -29l64 60c29 -26 97 -40 108 -2c9 32 -50 51 -85 30l-28 19l43 103c-52 26 -88 80 -86 181
v162h-79v141h79v123z" />
    <glyph glyph-name="Tcaron" unicode="&#x164;" horiz-adv-x="636" 
d="M219 537v-537h197v537h205v163h-606v-163h204zM378 751h-114l-152 157v8h158l51 -47l51 47h158v-8z" />
    <glyph glyph-name="tcaron" unicode="&#x165;" horiz-adv-x="528" 
d="M98 614l183 20v-143h86v-141h-87v-162c1 -35 21 -48 49 -48c18 0 39 7 54 17l40 -136c-42 -24 -91 -33 -142 -33c-98 0 -186 45 -183 200v162h-79v141h79v123zM393 417l45 231h158l-80 -231h-123z" />
    <glyph glyph-name="Tbar" unicode="&#x166;" horiz-adv-x="645" 
d="M108 272v141h115v122h-204v165h606v-165h-205v-122h120v-141h-120v-272h-197v272h-115z" />
    <glyph glyph-name="tbar" unicode="&#x167;" horiz-adv-x="431" 
d="M37 201v102h60v47h-79v141h79v123l183 20v-143h111v-141h-112v-47h82v-102h-82v-13c1 -35 21 -48 49 -48c18 0 39 7 54 17l40 -136c-42 -24 -91 -33 -142 -33c-98 0 -186 45 -183 200v13h-60z" />
    <glyph glyph-name="Utilde" unicode="&#x168;" horiz-adv-x="780" 
d="M523 699h197v-391c1 -207 -125 -323 -330 -323s-330 111 -330 325v389h197v-389c0 -110 53 -156 133 -156s133 48 133 154v391zM378 775c-43 26 -82 31 -102 -15l-97 69c33 98 132 124 207 79c43 -26 77 -30 103 18l94 -68c-34 -97 -113 -134 -205 -83z" />
    <glyph glyph-name="utilde" unicode="&#x169;" 
d="M48 494h184v-273c0 -61 35 -82 69 -82c44 0 85 27 85 92v263h182v-494h-163l-8 54c-42 -49 -104 -67 -156 -66c-104 1 -193 56 -193 232v274zM309 573c-42 26 -81 32 -100 -16l-96 71c33 101 131 128 205 81c42 -26 76 -30 101 19l92 -69c-33 -101 -111 -139 -202 -86z
" />
    <glyph glyph-name="Ubreve" unicode="&#x16c;" horiz-adv-x="780" 
d="M523 699h197v-391c1 -207 -125 -323 -330 -323s-330 111 -330 325v389h197v-389c0 -110 53 -156 133 -156s133 48 133 154v391zM204 918h145c0 -37 34 -42 46 -42c11 0 45 5 45 42h145c3 -103 -76 -165 -190 -165c-115 0 -194 62 -191 165z" />
    <glyph glyph-name="ubreve" unicode="&#x16d;" 
d="M48 494h184v-273c0 -61 35 -82 69 -82c44 0 85 27 85 92v263h182v-494h-163l-8 54c-42 -49 -104 -67 -156 -66c-104 1 -193 56 -193 232v274zM132 708h140c0 -37 32 -42 44 -42c11 0 43 5 43 42h140c3 -101 -73 -160 -183 -160c-111 0 -187 59 -184 160z" />
    <glyph glyph-name="Uring" unicode="&#x16e;" horiz-adv-x="780" 
d="M523 699h197v-391c1 -207 -125 -323 -330 -323s-330 111 -330 325v389h197v-389c0 -110 53 -156 133 -156s133 48 133 154v391zM396 991c195 0 198 -251 0 -251c-192 0 -193 251 0 251zM398 901c-54 0 -54 -70 0 -70s53 70 0 70z" />
    <glyph glyph-name="uring" unicode="&#x16f;" 
d="M48 494h184v-273c0 -61 35 -82 69 -82c44 0 85 27 85 92v263h182v-494h-163l-8 54c-42 -49 -104 -67 -156 -66c-104 1 -193 56 -193 232v274zM314 763c185 0 188 -228 0 -228c-182 0 -183 228 0 228zM316 681c-52 0 -52 -63 0 -63c51 0 50 63 0 63z" />
    <glyph glyph-name="Uhungarumlaut" unicode="&#x170;" horiz-adv-x="780" 
d="M720 699h-197v-391c0 -106 -53 -154 -133 -154s-133 46 -133 156v389h-197v-389c0 -214 125 -325 330 -325s331 116 330 323v391zM286 909h166v-8l-101 -152h-162zM508 909h166v-8l-101 -152h-162z" />
    <glyph glyph-name="uhungarumlaut" unicode="&#x171;" 
d="M232 494h-184v-274c0 -176 89 -231 193 -232c52 -1 114 17 156 66l8 -54h163v494h-182v-263c0 -65 -41 -92 -85 -92c-34 0 -69 21 -69 82v273zM210 700h160v-7l-97 -137h-156zM424 700h160v-7l-97 -137h-156z" />
    <glyph glyph-name="Uogonek" unicode="&#x172;" horiz-adv-x="784" 
d="M525 699h197v-391c1 -157 -72 -261 -195 -303l-6 -2c-2 0 -4 -1 -6 -2c-21 -7 -34 -22 -29 -42c9 -32 55 -33 95 -11l74 -97c-93 -66 -258 -84 -309 12c-22 43 -13 95 22 123c-191 8 -306 118 -306 324v389h197v-389c0 -110 53 -156 133 -156s133 48 133 154v391z" />
    <glyph glyph-name="uogonek" unicode="&#x173;" 
d="M48 494h184v-273c0 -61 35 -82 69 -82c44 0 85 27 85 92v263h182v-530c-61 16 -98 -16 -92 -43c4 -18 32 -30 77 -10l56 -77c-76 -59 -243 -56 -265 49c-11 53 17 100 62 120l-9 54c-42 -49 -104 -70 -156 -69c-104 1 -193 56 -193 232v274z" />
    <glyph glyph-name="Wcircumflex" unicode="&#x174;" horiz-adv-x="1066" 
d="M817 1l255 699h-216l-84 -241c-16 -58 -29 -114 -39 -167l-133 408h-137l-129 -408c-10 52 -20 109 -37 162l-90 246h-216l261 -699h160l120 335l124 -335h161zM475 941h124l165 -170v-8h-172l-55 51l-56 -51h-172v8z" />
    <glyph glyph-name="wcircumflex" unicode="&#x175;" horiz-adv-x="836" 
d="M474 494h-111l-87 -275l-38 139l-47 136h-192l180 -497h171l68 187l69 -187h169l181 497h-193l-46 -135l-37 -140zM360 719h115l155 -156v-8h-161l-52 47l-51 -47h-161v8z" />
    <glyph glyph-name="Ycircumflex" unicode="&#x176;" horiz-adv-x="722" 
d="M362 460l-145 240h-223v-8l266 -413v-279h198v279l278 412v9h-223zM302 918h118l158 -155v-7h-164l-53 46l-52 -46h-164v7z" />
    <glyph glyph-name="ycircumflex" unicode="&#x177;" horiz-adv-x="582" 
d="M591 494h-197l-46 -117l-60 -172l-54 171l-42 118h-195l196 -472l-100 -231h192zM227 720h126l170 -163v-9h-176l-57 49l-57 -49h-175v9z" />
    <glyph glyph-name="Zacute" unicode="&#x179;" horiz-adv-x="643" 
d="M42 700v-160h296l-313 -478v-62h586v171h-314l306 473v56h-561zM504 928v-8l-109 -159h-161v6l77 161h193z" />
    <glyph glyph-name="zacute" unicode="&#x17a;" horiz-adv-x="495" 
d="M455 494h-413v-146h178l-197 -291v-57h441v158h-197l188 274v62zM419 700v-7l-102 -138h-149v5l71 140h180z" />
    <glyph glyph-name="Zdotaccent" unicode="&#x17b;" horiz-adv-x="643" 
d="M42 700v-160h296l-313 -478v-62h586v171h-314l306 473v56h-561zM222 850c0 60 54 91 108 91s108 -31 108 -91c0 -61 -54 -91 -108 -91s-108 30 -108 91z" />
    <glyph glyph-name="zdotaccent" unicode="&#x17c;" horiz-adv-x="495" 
d="M455 494h-413v-146h178l-197 -291v-57h441v158h-197l188 274v62zM158 632c0 53 46 79 94 79c46 0 94 -26 94 -79c0 -52 -48 -79 -94 -79c-48 0 -94 27 -94 79z" />
    <glyph glyph-name="longs" unicode="&#x17f;" horiz-adv-x="360" 
d="M286 0h-184v343h-84v142h84v24c0 145 111 202 213 202c57 0 112 -18 149 -54l-56 -111c-20 17 -43 24 -67 24c-29 0 -55 -18 -55 -61v-509z" />
    <glyph glyph-name="macron" unicode="&#xaf;" horiz-adv-x="453" 
d="M45 561v140h350v-140h-350z" />
    <glyph glyph-name="Amacron" unicode="&#x100;" horiz-adv-x="797" 
d="M600 0l-46 115h-313l-46 -115h-210l314 700h200l313 -700h-212zM487 281l-89 223l-90 -223h179zM223 744v140h350v-140h-350z" />
    <glyph glyph-name="amacron" unicode="&#x101;" horiz-adv-x="648" 
d="M412 441l9 53h173v-494h-170l-8 53c-42 -48 -108 -65 -163 -62c-145 9 -226 112 -226 256c0 146 96 258 240 258c70 0 119 -24 145 -64zM309 356c-55 0 -99 -40 -99 -109s44 -108 99 -108c62 0 102 50 102 108c0 66 -37 109 -102 109zM169 568v139h335v-139h-335z" />
    <glyph glyph-name="Emacron" unicode="&#x112;" horiz-adv-x="672" 
d="M631 167v-167h-560v700h546v-166h-351v-100h331v-161h-331v-106h365zM191 757v134h335v-134h-335z" />
    <glyph glyph-name="emacron" unicode="&#x113;" horiz-adv-x="590" 
d="M214 313h179c-5 78 -167 81 -179 0zM302 506c175 0 298 -116 256 -311h-345c13 -44 70 -63 110 -63c54 0 95 16 127 40l90 -101c-59 -55 -140 -82 -225 -82c-156 0 -288 77 -288 257s141 260 275 260zM154 564v129h312v-129h-312z" />
    <glyph glyph-name="imacron" unicode="&#x12b;" horiz-adv-x="292" 
d="M238 0h-184v494h184v-494zM16 563v134h263v-134h-263z" />
    <glyph glyph-name="Imacron" unicode="&#x12a;" horiz-adv-x="339" 
d="M268 0h-197v700h197v-700zM17 761v144h301v-144h-301z" />
    <glyph glyph-name="omacron" unicode="&#x14d;" horiz-adv-x="618" 
d="M309 505c146 0 282 -79 282 -259s-143 -258 -282 -258c-142 0 -282 78 -282 258c0 183 139 259 282 259zM309 139c62 0 102 47 102 107c0 57 -37 108 -102 108s-102 -51 -102 -108s37 -107 102 -107zM156 555v143h305v-143h-305z" />
    <glyph glyph-name="Omacron" unicode="&#x14c;" horiz-adv-x="842" 
d="M810 350c0 -234 -159 -367 -389 -367c-229 0 -389 133 -389 367c0 230 160 367 389 367c230 0 389 -134 389 -367zM612 350c0 120 -75 198 -191 198c-113 0 -191 -82 -191 -198c0 -117 79 -198 191 -198c116 0 191 82 191 198zM245 770v140h350v-140h-350z" />
    <glyph glyph-name="umacron" unicode="&#x16b;" 
d="M48 494h184v-273c0 -61 35 -82 69 -82c44 0 85 27 85 92v263h182v-494h-163l-8 54c-42 -49 -104 -67 -156 -66c-104 1 -193 56 -193 232v274zM154 570v139h311v-139h-311z" />
    <glyph glyph-name="Umacron" unicode="&#x16a;" horiz-adv-x="780" 
d="M523 699h197v-391c1 -207 -125 -323 -330 -323s-330 111 -330 325v389h197v-389c0 -110 53 -156 133 -156s133 48 133 154v391zM225 759v147h333v-147h-333z" />
    <glyph glyph-name="uni021B" unicode="&#x21b;" horiz-adv-x="432" 
d="M98 614l183 20v-143h111v-141h-112v-162c1 -35 21 -48 49 -48c18 0 39 7 54 17l40 -136c-42 -24 -91 -33 -142 -33c-98 0 -186 45 -183 200v162h-79v141h79v123zM345 -132c0 -32 -19 -88 -57 -167h-95l21 102c-43 8 -53 38 -53 66c0 53 47 80 96 80c46 0 88 -26 88 -81z
" />
    <glyph glyph-name="uni021A" unicode="&#x21a;" horiz-adv-x="636" 
d="M219 0v537h-204v163h606v-163h-205v-537h-197zM403 -125c0 -32 -19 -88 -57 -167h-95l21 102c-43 8 -53 38 -53 66c0 53 47 80 96 80c46 0 88 -26 88 -81z" />
    <glyph glyph-name="scommaaccent" unicode="&#x219;" horiz-adv-x="511" 
d="M19 52l60 134c75 -49 135 -53 175 -55c33 0 50 8 50 24s-16 24 -52 27c-96 3 -212 42 -212 162c0 119 112 162 228 162c80 0 154 -24 202 -60l-78 -110c-27 17 -84 31 -124 30c-26 0 -44 -6 -44 -24c0 -9 7 -23 37 -24c103 -3 227 -32 227 -163
c0 -122 -111 -168 -230 -168c-86 0 -183 24 -239 65zM343 -132c0 -29 -18 -79 -55 -149h-90l20 91c-40 7 -50 33 -50 59c0 46 44 71 91 71c43 0 84 -24 84 -72z" />
    <glyph glyph-name="Scommaaccent" unicode="&#x218;" horiz-adv-x="666" 
d="M600 631l-98 -125c-48 36 -103 48 -164 48c-48 0 -95 -15 -95 -52c0 -48 47 -55 116 -62c139 -15 284 -71 284 -232c0 -159 -150 -227 -307 -228c-126 -1 -216 21 -313 123l109 125c69 -67 146 -79 205 -79c65 0 110 23 110 62c0 35 -40 57 -117 64
c-153 14 -285 53 -285 227c0 148 145 212 293 212c105 0 187 -24 262 -83zM434 -142c0 -32 -21 -86 -63 -163h-104l23 99c-47 8 -57 37 -57 65c0 51 50 78 104 78c50 0 97 -26 97 -79z" />
    <glyph glyph-name="dotlessj" unicode="&#x237;" horiz-adv-x="292" 
d="M-70 -201l35 129c54 -30 89 -12 89 49v509h184v-509c0 -193 -150 -255 -308 -178z" />
    <glyph glyph-name="Aringacute" unicode="&#x1fa;" horiz-adv-x="797" 
d="M399 853c-150 0 -196 -125 -122 -203l-292 -650h210l46 115h313l46 -115h212l-290 648c81 76 29 205 -123 205zM398 530l48 -146l41 -103h-179l41 103zM401 751c59 0 60 -73 0 -73c-62 0 -62 73 0 73zM600 990v-6l-114 -107h-168v4l81 109h201z" />
    <glyph glyph-name="aringacute" unicode="&#x1fb;" horiz-adv-x="648" 
d="M421 494l-9 -53c-26 40 -75 64 -145 64c-144 0 -240 -112 -240 -258c0 -144 81 -247 226 -256c55 -3 121 14 163 62l8 -53h170v494h-173zM309 356c65 0 102 -43 102 -109c0 -58 -40 -108 -102 -108c-55 0 -99 39 -99 108s44 109 99 109zM324 750c-183 0 -182 -214 0 -214
c188 0 185 214 0 214zM326 673c50 0 51 -60 0 -60c-52 0 -52 60 0 60zM509 891v-6l-104 -109h-153v4l73 111h184z" />
    <glyph glyph-name="AEacute" unicode="&#x1fc;" horiz-adv-x="925" 
d="M-26 11v-11h199l63 105h208v-105h440v157h-258v122h226v153h-226v110h243v158h-480zM444 278h-109l124 240l-12 -124zM750 907v-7l-112 -150h-166v6l79 151h199z" />
    <glyph glyph-name="aeacute" unicode="&#x1fd;" horiz-adv-x="946" 
d="M643 695v-7l-95 -146h-141v6l68 147h168zM315 356c65 0 104 -42 104 -114c0 -61 -42 -103 -104 -103c-55 0 -99 39 -99 108s44 109 99 109zM755 313h-182c12 81 177 78 182 0zM572 195h338c44 196 -78 307 -222 308c-52 1 -105 -15 -148 -50l-3 41h-116l-9 -53
c-26 40 -75 64 -145 64c-144 0 -240 -112 -240 -258c0 -144 81 -247 226 -256c55 -3 121 14 163 62l8 -53h113l3 45c31 -40 84 -56 137 -56c85 0 166 27 225 82l-90 101c-32 -24 -73 -40 -127 -40c-40 0 -100 19 -113 63z" />
    <glyph glyph-name="Oslashacute" unicode="&#x1fe;" horiz-adv-x="842" 
d="M619 943v-8l-109 -159h-161v6l77 161h193zM783 769h-173l-47 -72c-43 13 -91 20 -142 20c-229 0 -389 -137 -389 -367c0 -126 46 -222 124 -285l-90 -139h171l48 74c42 -11 87 -17 136 -17c230 0 389 133 389 367c0 121 -43 216 -118 279zM421 548c15 0 30 -2 44 -4
l-202 -312c-21 32 -33 72 -33 118c0 116 78 198 191 198zM612 350c0 -116 -75 -198 -191 -198c-13 0 -24 1 -36 3l199 307c18 -31 28 -69 28 -112z" />
    <glyph glyph-name="oslashacute" unicode="&#x1ff;" horiz-adv-x="619" 
d="M476 712v-7l-98 -129h-147v5l70 131h175zM310 139c-65 0 -98 47 -98 107s33 108 98 108s98 -48 98 -108s-33 -107 -98 -107zM310 505c-143 0 -282 -73 -282 -259c0 -93 35 -158 88 -199l-65 -107h171l31 52c19 -2 38 -4 57 -4c139 0 282 72 282 258c0 92 -33 157 -85 199
l67 110h-170l-33 -55c-20 3 -41 5 -61 5z" />
    <glyph glyph-name="Wgrave" unicode="&#x1e80;" horiz-adv-x="1066" 
d="M1072 700l-255 -699h-161l-124 335l-120 -335h-160l-261 699h216l90 -246c17 -53 27 -110 37 -162l129 408h137l133 -408c10 53 23 109 39 167l84 241h216zM342 911v8h209l83 -149v-6h-174z" />
    <glyph glyph-name="wgrave" unicode="&#x1e81;" horiz-adv-x="836" 
d="M363 494h111l87 -275l37 140l46 135h193l-181 -497h-169l-69 187l-68 -187h-171l-180 497h192l47 -136l38 -139zM247 694v7h189l75 -141v-5h-157z" />
    <glyph glyph-name="Wacute" unicode="&#x1e82;" horiz-adv-x="1066" 
d="M817 1l255 699h-216l-84 -241c-16 -58 -29 -114 -39 -167l-133 408h-137l-129 -408c-10 52 -20 109 -37 162l-90 246h-216l261 -699h160l120 335l124 -335h161zM735 919v-7l-116 -150h-172v6l82 151h206z" />
    <glyph glyph-name="wacute" unicode="&#x1e83;" horiz-adv-x="836" 
d="M474 494h-111l-87 -275l-38 139l-47 136h-192l180 -497h171l68 187l69 -187h169l181 497h-193l-46 -135l-37 -140zM605 703v-7l-109 -142h-160v5l77 144h192z" />
    <glyph glyph-name="Wdieresis" unicode="&#x1e84;" horiz-adv-x="1066" 
d="M817 1l255 699h-216l-84 -241c-16 -58 -29 -114 -39 -167l-133 408h-137l-129 -408c-10 52 -20 109 -37 162l-90 246h-216l261 -699h160l120 335l124 -335h161zM294 843c0 56 46 86 93 86s95 -30 95 -86c0 -54 -48 -83 -95 -83s-93 29 -93 83zM584 843c0 56 47 86 95 86
c46 0 94 -30 94 -86c0 -54 -48 -83 -94 -83c-48 0 -95 29 -95 83z" />
    <glyph glyph-name="wdieresis" unicode="&#x1e85;" horiz-adv-x="836" 
d="M474 494h-111l-87 -275l-38 139l-47 136h-192l180 -497h171l68 187l69 -187h169l181 497h-193l-46 -135l-37 -140zM197 626c0 52 43 80 87 80c43 0 88 -28 88 -80c0 -51 -45 -78 -88 -78c-44 0 -87 27 -87 78zM466 626c0 52 44 80 89 80c42 0 87 -28 87 -80
c0 -51 -45 -78 -87 -78c-45 0 -89 27 -89 78z" />
    <glyph glyph-name="Ygrave" unicode="&#x1ef2;" horiz-adv-x="722" 
d="M217 700l145 -240l151 240h223v-9l-278 -412v-279h-198v279l-266 413v8h223zM164 911v8h212l85 -155v-5h-177z" />
    <glyph glyph-name="ygrave" unicode="&#x1ef3;" horiz-adv-x="582" 
d="M394 494h197l-306 -703h-192l100 231l-196 472h195l42 -118l54 -171l60 172zM133 699v8h190l76 -157v-6h-159z" />
    <glyph glyph-name="_375" unicode="&#x394;" horiz-adv-x="794" 
d="M785 17v-17h-804v12l303 688h200zM384 502l-140 -343h278z" />
    <glyph glyph-name="_376" unicode="&#x3a9;" horiz-adv-x="826" 
d="M404 555c-114 0 -185 -92 -185 -198c-1 -79 33 -168 135 -193v-164h-309v157h93c-74 49 -108 149 -108 218c0 201 140 345 374 345s375 -144 375 -345c0 -75 -33 -173 -112 -218h97v-157h-309v164c105 26 140 115 140 194c0 114 -71 197 -191 197z" />
    <glyph glyph-name="pi" unicode="&#x3c0;" horiz-adv-x="702" 
d="M292 0h-183v346h-93v147h653v-147h-93v-186c0 -48 38 -45 73 -35l16 -124c-126 -32 -268 -16 -268 156v189h-105v-346z" />
    <glyph glyph-name="commaaccent" horiz-adv-x="382" 
d="M267 -120c0 -31 -19 -85 -58 -161h-97l21 98c-43 8 -53 36 -53 64c0 50 47 77 98 77c46 0 89 -26 89 -78z" />
    <glyph glyph-name="commaaccent.alt" horiz-adv-x="377" 
d="M93 578c0 31 19 85 58 161h97l-21 -98c43 -8 53 -36 53 -64c0 -50 -47 -77 -98 -77c-46 0 -89 26 -89 78z" />
    <glyph glyph-name="zero.tf" horiz-adv-x="720" 
d="M237 403v-117c0 -107 52 -146 123 -146c70 0 124 39 124 146v117c0 103 -52 143 -121 143c-71 0 -126 -37 -126 -143zM43 286v115c0 216 147 308 320 308s313 -97 313 -308v-114c0 -212 -145 -306 -312 -306c-166 0 -321 88 -321 305z" />
    <glyph glyph-name="one.tf" horiz-adv-x="720" 
d="M107 0v152h169v333l-151 -49v154l343 123v-561h171v-152h-532z" />
    <glyph glyph-name="two.tf" horiz-adv-x="720" 
d="M265 479h-193c1 163 138 231 294 231c166 0 290 -72 290 -221c0 -174 -125 -232 -293 -232c-48 0 -114 -8 -114 -89h402v-168h-591v163c0 208 159 250 303 250c39 0 98 16 98 73c0 49 -47 67 -95 67c-58 0 -96 -21 -101 -74z" />
    <glyph glyph-name="three.tf" horiz-adv-x="720" 
d="M363 287h-127v140h118c39 0 96 9 98 58c0 34 -37 64 -98 64c-52 0 -102 -19 -103 -69h-190c4 172 154 232 293 232c135 0 296 -58 296 -219c0 -53 -35 -110 -93 -135c81 -30 109 -90 109 -154c0 -164 -177 -217 -313 -217c-141 0 -303 64 -302 244h194
c1 -63 59 -84 118 -84c49 0 97 24 97 69c0 18 -5 71 -97 71z" />
    <glyph glyph-name="four.tf" horiz-adv-x="720" 
d="M406 700h183v-423h75v-156h-75v-121h-186v121h-357l-13 164zM237 277h166v183z" />
    <glyph glyph-name="five.tf" horiz-adv-x="720" 
d="M608 700v-161h-337v-84h94c154 0 293 -42 292 -231c0 -172 -156 -233 -288 -233c-167 0 -292 64 -293 241h193c0 -59 54 -82 98 -82c29 0 97 12 97 74c1 68 -63 76 -99 76h-277v400h520z" />
    <glyph glyph-name="six.tf" horiz-adv-x="720" 
d="M658 499h-189c-4 42 -49 61 -105 61c-55 0 -110 -30 -110 -84v-66c40 30 106 48 162 48c148 0 258 -79 258 -227c0 -172 -151 -241 -305 -241c-151 0 -309 70 -309 243v243c0 166 149 238 303 238c158 0 295 -53 295 -215zM369 152c60 0 108 29 108 79
c0 54 -42 85 -107 85c-77 0 -114 -37 -114 -84c0 -41 39 -80 113 -80z" />
    <glyph glyph-name="seven.tf" horiz-adv-x="720" 
d="M346 0h-212l271 537h-315v163h556l5 -89z" />
    <glyph glyph-name="eight.tf" horiz-adv-x="720" 
d="M360 292c-68 0 -114 -27 -114 -74c0 -48 52 -74 113 -74c57 0 113 23 111 73c0 44 -40 75 -110 75zM41 218c1 37 26 110 93 145c-48 34 -71 85 -72 139c0 142 126 213 289 213c165 0 308 -71 308 -211c1 -54 -25 -104 -74 -134c74 -40 91 -113 92 -152
c3 -171 -137 -233 -318 -233s-322 61 -318 233zM355 422c129 0 130 143 1 143s-129 -143 -1 -143z" />
    <glyph glyph-name="nine.tf" horiz-adv-x="720" 
d="M55 203h189c4 -42 49 -61 105 -61c55 0 117 30 117 90v60c-50 -40 -106 -48 -162 -48c-148 0 -258 79 -258 227c0 172 151 241 305 241c151 0 309 -70 309 -243v-236c0 -176 -155 -245 -309 -245c-158 0 -296 53 -296 215zM351 550c-60 0 -108 -29 -108 -79
c0 -54 42 -85 107 -85c77 0 114 37 114 84c0 41 -39 80 -113 80z" />
    <glyph glyph-name="Euro.tf" horiz-adv-x="720" 
d="M82 199v121h55c0 20 -1 44 0 50h-55v117h83c71 202 306 258 476 192l-48 -141c-84 31 -175 31 -222 -51h181l-29 -117h-199c-1 -17 -1 -33 0 -50h188l-26 -121h-113c52 -58 157 -75 229 -49l48 -144c-48 -15 -100 -21 -140 -21c-183 0 -303 80 -350 214h-78z" />
    <glyph glyph-name="cent.tf" horiz-adv-x="720" 
d="M503 184l105 -110c-43 -39 -92 -66 -144 -77v-76h-161v82c-101 28 -179 102 -179 243c0 137 79 215 179 245v85h161v-78c48 -10 94 -34 131 -70l-98 -106c-24 25 -52 36 -85 36c-70 0 -108 -51 -108 -113c0 -54 37 -102 107 -102c34 0 67 14 92 41z" />
    <glyph glyph-name="sterling.tf" horiz-adv-x="720" 
d="M316 472c0 -21 4 -46 10 -69h189v-136h-166c5 -34 -8 -87 -31 -110h333v-157h-576v156c64 2 91 64 87 111h-87v136h60c-5 21 -9 49 -10 68c-6 139 88 239 261 239c152 0 257 -73 250 -227h-175c-1 49 -29 72 -69 72c-46 0 -76 -27 -76 -83z" />
    <glyph glyph-name="florin.tf" horiz-adv-x="720" 
d="M571 337h-128v-338c0 -222 -230 -258 -353 -153l56 111c20 -17 34 -24 58 -24c29 0 55 18 55 65v339h-109v142h109v30c0 145 111 202 213 202c57 0 112 -15 149 -51l-56 -114c-20 17 -43 24 -67 24c-29 0 -55 -18 -55 -61v-30h128v-142z" />
    <glyph glyph-name="yen.tf" horiz-adv-x="720" 
d="M100 110v119h157v41h-157v127h80l-191 295v8h220l74 -123l74 -140l76 139l78 124h220v-9l-200 -294h80v-127h-160v-41h160v-119h-160v-110h-194v110h-157z" />
    <glyph glyph-name="dollar.tf" horiz-adv-x="720" 
d="M277 -110v94c-84 10 -154 41 -227 119l109 125c69 -67 146 -79 205 -79c65 0 110 23 110 62c0 35 -40 57 -117 64c-153 14 -285 53 -285 227c0 118 92 183 205 204v91h168v-89c68 -10 127 -34 182 -77l-98 -125c-48 36 -103 48 -164 48c-48 0 -95 -15 -95 -52
c0 -48 47 -55 116 -62c139 -15 284 -71 284 -232c0 -131 -102 -200 -226 -221h1v-97h-168z" />
    <glyph glyph-name="zero.denom" horiz-adv-x="407" 
d="M139 208v-55c0 -42 32 -63 64 -63s65 21 65 63v55c0 44 -33 65 -65 65s-64 -21 -64 -65zM33 156v53c0 110 85 164 171 164c84 0 170 -54 170 -164v-53c0 -112 -86 -169 -170 -169c-86 0 -171 57 -171 169z" />
    <glyph glyph-name="one.denom" horiz-adv-x="285" 
d="M32 0v91h61v162c-16 -3 -38 -9 -51 -11v92l158 42v-285h63v-91h-231z" />
    <glyph glyph-name="two.denom" horiz-adv-x="379" 
d="M142 258h-105c1 80 75 124 150 124c89 0 157 -41 157 -125c0 -91 -79 -110 -140 -124c-33 -7 -61 -13 -66 -29h203v-104h-306v99c0 88 73 106 131 120c37 8 68 15 68 38c0 20 -23 29 -44 29c-22 0 -44 -10 -48 -28z" />
    <glyph glyph-name="three.denom" horiz-adv-x="382" 
d="M189 146h-62v83h58c35 0 50 13 50 30s-20 28 -50 29c-25 1 -51 -9 -55 -29h-96c0 85 83 120 153 120c72 0 156 -39 156 -121c0 -28 -13 -53 -39 -70c28 -15 47 -47 47 -80c0 -97 -91 -120 -163 -120c-71 0 -160 37 -161 125h112c3 -22 26 -28 48 -28c26 0 51 10 51 32
c0 17 -18 29 -49 29z" />
    <glyph glyph-name="four.denom" horiz-adv-x="401" 
d="M187 372h135v-219h44v-93h-44v-60h-107v60h-190l-4 91zM215 153v105c-28 -36 -52 -68 -80 -105h80z" />
    <glyph glyph-name="five.denom" horiz-adv-x="381" 
d="M328 372v-94h-180v-33h48c75 0 156 -23 156 -125c0 -99 -82 -133 -151 -133c-87 0 -159 38 -160 132h109c3 -26 23 -38 43 -38c24 0 49 14 49 39c0 23 -23 34 -46 34h-150v218h282z" />
    <glyph glyph-name="six.denom" horiz-adv-x="385" 
d="M244 121c0 23 -25 33 -49 33c-26 0 -50 -10 -49 -33c0 -22 23 -33 48 -33c24 0 50 11 50 33zM345 259h-101c-3 20 -24 30 -46 30c-26 0 -52 -11 -52 -30v-32c21 11 44 16 70 16c66 0 138 -38 138 -122c0 -88 -83 -127 -159 -127c-78 0 -157 44 -157 128v137
c0 81 78 119 156 119c81 0 147 -34 151 -119z" />
    <glyph glyph-name="seven.denom" horiz-adv-x="328" 
d="M167 0h-121l130 272h-150v100h287l4 -47z" />
    <glyph glyph-name="eight.denom" horiz-adv-x="393" 
d="M140 117c-1 -13 13 -36 58 -36c43 0 57 21 56 36c0 17 -24 33 -55 33c-32 0 -59 -12 -59 -33zM30 118c0 22 18 56 49 76c-22 16 -38 45 -38 68c0 79 67 120 154 120c85 0 157 -41 157 -119c0 -24 -9 -49 -38 -66c30 -20 48 -53 48 -80c1 -94 -80 -128 -167 -126
c-86 0 -168 33 -165 127zM198 231c31 0 45 15 45 30s-17 31 -46 31c-31 0 -47 -16 -47 -30c0 -16 16 -31 48 -31z" />
    <glyph glyph-name="nine.denom" horiz-adv-x="384" 
d="M142 251c0 -24 24 -33 49 -33c24 0 50 9 49 33c0 21 -25 32 -48 32c-26 0 -50 -11 -50 -32zM36 113h103c3 -21 25 -31 48 -31c26 0 53 11 53 31v31c-21 -11 -44 -16 -70 -16c-66 0 -138 39 -138 123c0 87 83 126 159 126c77 0 157 -44 157 -127v-137
c0 -82 -79 -122 -156 -122c-85 0 -153 34 -156 122z" />
    <glyph glyph-name="zero.num" horiz-adv-x="407" 
d="M139 542v-55c0 -42 32 -63 64 -63s65 21 65 63v55c0 44 -33 66 -65 66s-64 -22 -64 -66zM33 490v53c0 110 85 165 171 165c84 0 170 -55 170 -165v-53c0 -112 -86 -169 -170 -169c-86 0 -171 57 -171 169z" />
    <glyph glyph-name="one.num" horiz-adv-x="286" 
d="M33 333v91h61v162c-16 -3 -38 -9 -51 -11v92l158 43v-286h63v-91h-231z" />
    <glyph glyph-name="two.num" horiz-adv-x="378" 
d="M141 581h-105c1 81 75 125 150 125c89 0 157 -41 157 -126c0 -91 -79 -110 -140 -123c-33 -7 -61 -14 -66 -30h203v-104h-306v99c0 89 73 106 131 120c37 9 68 16 68 38c0 21 -23 30 -44 30c-22 0 -44 -10 -48 -29z" />
    <glyph glyph-name="three.num" horiz-adv-x="382" 
d="M189 474h-62v84h58c35 0 50 12 50 29c0 18 -20 29 -50 30c-25 0 -51 -9 -55 -30h-96c0 85 83 121 153 121c72 0 156 -40 156 -122c0 -27 -13 -53 -39 -69c28 -15 47 -48 47 -81c0 -97 -91 -119 -163 -119c-71 0 -160 36 -161 124h112c3 -21 26 -27 48 -27
c26 0 51 9 51 31c0 18 -18 29 -49 29z" />
    <glyph glyph-name="four.num" horiz-adv-x="399" 
d="M186 700h135v-220h44v-93h-44v-60h-107v60h-190l-4 91zM214 480v105c-28 -36 -52 -67 -80 -105h80z" />
    <glyph glyph-name="five.num" horiz-adv-x="383" 
d="M330 697v-94h-180v-34h48c75 0 156 -22 156 -125c0 -99 -82 -132 -151 -132c-87 0 -159 37 -160 131h109c3 -25 23 -37 43 -37c24 0 49 14 49 38s-23 34 -46 34h-150v219h282z" />
    <glyph glyph-name="six.num" horiz-adv-x="382" 
d="M242 450c0 23 -25 33 -49 33c-26 0 -50 -10 -49 -33c0 -22 23 -32 48 -32c24 0 50 10 50 32zM343 588h-101c-3 21 -24 30 -46 30c-26 0 -52 -10 -52 -30v-31c21 11 44 15 70 15c66 0 138 -38 138 -122c0 -87 -83 -127 -159 -127c-78 0 -157 45 -157 128v137
c0 81 78 120 156 120c81 0 147 -35 151 -120z" />
    <glyph glyph-name="seven.num" horiz-adv-x="329" 
d="M167 325h-121l130 273h-150v100h287l4 -47z" />
    <glyph glyph-name="eight.num" horiz-adv-x="392" 
d="M140 444c-1 -13 13 -35 58 -35c43 0 57 20 56 35c0 18 -24 33 -55 33c-32 0 -59 -11 -59 -33zM30 445c0 23 18 57 49 76c-22 16 -38 46 -38 68c0 79 67 121 154 121c85 0 157 -42 157 -120c0 -23 -9 -49 -38 -66c30 -19 48 -53 48 -80c1 -94 -80 -127 -167 -125
c-86 0 -168 32 -165 126zM198 559c31 0 45 14 45 29c0 16 -17 31 -46 31c-31 0 -47 -15 -47 -30c0 -16 16 -30 48 -30z" />
    <glyph glyph-name="nine.num" horiz-adv-x="384" 
d="M142 579c0 -23 24 -33 49 -33c24 0 50 10 49 33c0 22 -25 33 -48 33c-26 0 -50 -11 -50 -33zM36 441h103c3 -21 25 -30 48 -30c26 0 53 10 53 30v31c-21 -10 -44 -15 -70 -15c-66 0 -138 38 -138 122c0 88 83 127 159 127c77 0 157 -44 157 -128v-137
c0 -81 -79 -121 -156 -121c-85 0 -153 33 -156 121z" />
    <glyph glyph-name="parenleft.case" horiz-adv-x="387" 
d="M289 827l84 -98c-105 -86 -174 -227 -174 -381c0 -141 63 -292 164 -375l-79 -106c-168 112 -251 283 -251 481c0 197 104 372 256 479z" />
    <glyph glyph-name="parenright.case" horiz-adv-x="387" 
d="M14 729l84 98c152 -107 256 -282 256 -479c0 -198 -83 -369 -251 -481l-79 106c101 83 164 234 164 375c0 154 -69 295 -174 381z" />
    <glyph glyph-name="hyphen.case" horiz-adv-x="522" 
d="M60 258v147h402v-147h-402z" />
    <glyph glyph-name="bracketleft.case" horiz-adv-x="386" 
d="M344 -85h-271v860h271v-145h-106v-570h106v-145z" />
    <glyph glyph-name="bracketright.case" horiz-adv-x="386" 
d="M313 -85h-271v145h106v570h-106v145h271v-860z" />
    <glyph glyph-name="braceleft.case" horiz-adv-x="398" 
d="M356 47v-132c-32 -6 -70 -10 -93 -10c-119 0 -167 69 -167 175v141c0 24 -6 55 -63 55v128c57 0 63 30 63 56v133c0 114 43 184 167 184c23 0 59 -3 93 -9v-122c-43 9 -87 7 -87 -60v-140c0 -46 1 -81 -47 -108c42 -24 47 -60 47 -104v-136c1 -61 44 -57 87 -51z" />
    <glyph glyph-name="bar.case" horiz-adv-x="323" 
d="M250 735v-819h-177v819h177z" />
    <glyph glyph-name="braceright.case" horiz-adv-x="398" 
d="M42 -85v132c43 -6 86 -10 87 51v136c0 44 5 80 47 104c-48 27 -47 62 -47 108v140c0 67 -44 69 -87 60v122c34 6 70 9 93 9c124 0 167 -70 167 -184v-133c0 -26 6 -56 63 -56v-128c-57 0 -63 -31 -63 -55v-141c0 -106 -48 -175 -167 -175c-23 0 -61 4 -93 10z" />
    <glyph glyph-name="guilsinglleft.case" horiz-adv-x="411" 
d="M44 332l139 224h173l-139 -224l141 -223h-175z" />
    <glyph glyph-name="guilsinglright.case" horiz-adv-x="411" 
d="M228 556l139 -224l-139 -223h-175l141 223l-139 224h173z" />
    <glyph glyph-name="guillemotleft.case" horiz-adv-x="643" 
d="M44 332l139 224h173l-139 -224l141 -223h-175zM276 332l139 224h173l-139 -224l141 -223h-175z" />
    <glyph glyph-name="guillemotright.case" horiz-adv-x="643" 
d="M460 556l139 -224l-139 -223h-175l141 223l-139 224h173zM228 556l139 -224l-139 -223h-175l141 223l-139 224h173z" />
    <glyph glyph-name="endash.case" horiz-adv-x="621" 
d="M60 250v146h501v-146h-501z" />
    <glyph glyph-name="emdash.case" horiz-adv-x="708" 
d="M60 251v146h588v-146h-588z" />
    <glyph glyph-name="bullet.case" horiz-adv-x="439" 
d="M221 173c-89 0 -156 55 -156 141c0 85 67 143 156 143c86 0 153 -58 153 -143c0 -86 -67 -141 -153 -141z" />
    <glyph glyph-name="periodcentered.case" horiz-adv-x="318" 
d="M159 229c-139 0 -139 190 0 190c138 0 139 -190 0 -190z" />
    <glyph glyph-name="zerosuperior" unicode="&#x2070;" horiz-adv-x="407" 
d="M139 655v-55c0 -42 32 -63 64 -63s65 21 65 63v55c0 44 -33 65 -65 65s-64 -21 -64 -65zM33 603v53c0 110 85 164 171 164c84 0 170 -54 170 -164v-53c0 -112 -86 -169 -170 -169c-86 0 -171 57 -171 169z" />
    <glyph glyph-name="foursuperior" unicode="&#x2074;" horiz-adv-x="399" 
d="M186 813h135v-219h44v-93h-44v-60h-107v60h-190l-4 91zM214 594v105l-80 -105h80z" />
    <glyph glyph-name="fivesuperior" unicode="&#x2075;" horiz-adv-x="381" 
d="M328 814v-94h-180v-33h48c75 0 156 -23 156 -125c0 -99 -82 -133 -151 -133c-87 0 -159 38 -160 132h109c3 -26 23 -38 43 -38c24 0 49 14 49 39c0 23 -23 34 -46 34h-150v218h282z" />
    <glyph glyph-name="sixsuperior" unicode="&#x2076;" horiz-adv-x="385" 
d="M244 565c0 23 -25 33 -49 33c-26 0 -50 -10 -49 -33c0 -22 23 -33 48 -33c24 0 50 11 50 33zM345 703h-101c-3 20 -24 30 -46 30c-26 0 -52 -11 -52 -30v-32c21 11 44 16 70 16c66 0 138 -38 138 -122c0 -95 -83 -127 -159 -127c-78 0 -157 44 -157 128v137
c0 81 78 119 156 119c81 0 147 -34 151 -119z" />
    <glyph glyph-name="sevensuperior" unicode="&#x2077;" horiz-adv-x="329" 
d="M167 441h-121l130 272h-150v100h287l4 -47z" />
    <glyph glyph-name="eightsuperior" unicode="&#x2078;" horiz-adv-x="392" 
d="M140 557c-1 -13 13 -36 58 -36c43 0 57 21 56 36c0 17 -24 33 -55 33c-32 0 -59 -12 -59 -33zM30 558c0 22 18 56 49 76c-22 16 -38 45 -38 68c0 79 67 120 154 120c85 0 157 -41 157 -119c0 -24 -9 -49 -38 -66c30 -20 48 -53 48 -80c1 -94 -80 -128 -167 -126
c-86 0 -168 33 -165 127zM198 671c31 0 45 15 45 30s-17 31 -46 31c-31 0 -47 -16 -47 -30c0 -16 16 -31 48 -31z" />
    <glyph glyph-name="ninesuperior" unicode="&#x2079;" horiz-adv-x="384" 
d="M142 694c0 -24 24 -33 49 -33c24 0 50 9 49 33c0 21 -25 32 -48 32c-26 0 -50 -11 -50 -32zM36 556h103c3 -21 25 -31 48 -31c26 0 53 11 53 31v31c-21 -11 -44 -16 -70 -16c-66 0 -138 39 -138 123c0 87 83 126 159 126c77 0 157 -44 157 -127v-137
c0 -82 -79 -122 -156 -122c-85 0 -153 34 -156 122z" />
    <glyph glyph-name="zeroinferior" unicode="&#x2080;" horiz-adv-x="407" 
d="M139 136v-55c0 -42 32 -63 64 -63s65 21 65 63v55c0 44 -33 65 -65 65s-64 -21 -64 -65zM33 84v53c0 110 85 164 171 164c84 0 170 -54 170 -164v-53c0 -112 -86 -169 -170 -169c-86 0 -171 57 -171 169z" />
    <glyph glyph-name="oneinferior" unicode="&#x2081;" horiz-adv-x="286" 
d="M33 -78v91h61v162c-16 -3 -38 -9 -51 -11v92l158 42v-285h63v-91h-231z" />
    <glyph glyph-name="twoinferior" unicode="&#x2082;" horiz-adv-x="379" 
d="M142 180h-105c1 80 75 124 150 124c89 0 157 -41 157 -125c0 -91 -79 -110 -140 -124c-33 -7 -61 -13 -66 -29h203v-104h-306v99c0 88 73 106 131 120c37 8 68 15 68 38c0 20 -23 29 -44 29c-22 0 -44 -10 -48 -28z" />
    <glyph glyph-name="threeinferior" unicode="&#x2083;" horiz-adv-x="382" 
d="M189 73h-62v83h58c35 0 50 13 50 30s-20 28 -50 29c-25 1 -51 -9 -55 -29h-96c0 85 83 120 153 120c72 0 156 -39 156 -121c0 -28 -13 -53 -39 -70c28 -15 47 -47 47 -80c0 -97 -91 -120 -163 -120c-71 0 -160 37 -161 125h112c3 -22 26 -28 48 -28c26 0 51 10 51 32
c0 17 -18 29 -49 29z" />
    <glyph glyph-name="fourinferior" unicode="&#x2084;" horiz-adv-x="399" 
d="M186 294h135v-219h44v-93h-44v-60h-107v60h-190l-4 91zM214 75v105l-80 -105h80z" />
    <glyph glyph-name="fiveinferior" unicode="&#x2085;" horiz-adv-x="383" 
d="M330 301v-94h-180v-33h48c75 0 156 -23 156 -125c0 -99 -82 -133 -151 -133c-87 0 -159 38 -160 132h109c3 -26 23 -38 43 -38c24 0 49 14 49 39c0 23 -23 34 -46 34h-150v218h282z" />
    <glyph glyph-name="sixinferior" unicode="&#x2086;" horiz-adv-x="385" 
d="M244 44c0 23 -25 33 -49 33c-26 0 -50 -10 -49 -33c0 -22 23 -33 48 -33c24 0 50 11 50 33zM345 182h-101c-3 20 -24 30 -46 30c-26 0 -52 -11 -52 -30v-32c21 11 44 16 70 16c66 0 138 -38 138 -122c0 -95 -83 -127 -159 -127c-78 0 -157 44 -157 128v137
c0 81 78 119 156 119c81 0 147 -34 151 -119z" />
    <glyph glyph-name="seveninferior" unicode="&#x2087;" horiz-adv-x="329" 
d="M167 -78h-121l130 272h-150v100h287l4 -47z" />
    <glyph glyph-name="eightinferior" unicode="&#x2088;" horiz-adv-x="392" 
d="M140 41c-1 -13 13 -36 58 -36c43 0 57 21 56 36c0 17 -24 33 -55 33c-32 0 -59 -12 -59 -33zM30 42c0 22 18 56 49 76c-22 16 -38 45 -38 68c0 79 67 120 154 120c85 0 157 -41 157 -119c0 -24 -9 -49 -38 -66c30 -20 48 -53 48 -80c1 -94 -80 -128 -167 -126
c-86 0 -168 33 -165 127zM198 155c31 0 45 15 45 30s-17 31 -46 31c-31 0 -47 -16 -47 -30c0 -16 16 -31 48 -31z" />
    <glyph glyph-name="nineinferior" unicode="&#x2089;" horiz-adv-x="386" 
d="M142 177c0 -24 24 -33 49 -33c24 0 50 9 49 33c0 21 -25 32 -48 32c-26 0 -50 -11 -50 -32zM36 39h103c3 -21 25 -31 48 -31c26 0 53 11 53 31v31c-21 -11 -44 -16 -70 -16c-66 0 -138 39 -138 123c0 87 83 126 159 126c77 0 157 -44 157 -127v-137
c0 -82 -79 -122 -156 -122c-85 0 -153 34 -156 122z" />
    <glyph glyph-name="afii61289" unicode="&#x2113;" horiz-adv-x="410" 
d="M231 239v-86c0 -35 24 -53 57 -53c8 0 25 3 65 14v-97c-42 -14 -77 -21 -110 -21c-83 0 -145 41 -154 143c-14 -7 -30 -16 -41 -20l-22 75c21 9 44 19 61 28v308c0 123 40 172 170 172c104 0 131 -68 131 -144c0 -19 -1 -37 -3 -54c-12 -103 -78 -194 -154 -265zM228 530
v-98c0 -22 -1 -36 -1 -49v-13c30 44 59 96 64 147c2 13 4 31 4 45c0 32 -6 62 -36 62c-21 0 -31 -48 -31 -94z" />
    <glyph glyph-name="uni2117" unicode="&#x2117;" horiz-adv-x="801" 
d="M400 717c232 0 362 -167 362 -365s-130 -365 -362 -365c-231 0 -361 167 -361 365s130 365 361 365zM148 352c2 -151 93 -269 252 -269c160 0 251 118 251 269c0 150 -91 269 -251 269c-159 0 -250 -119 -252 -269zM374 267h66c190 0 192 257 1 257h-170v-356h103v99z
M374 430h67c49 0 56 -75 1 -75h-68v75z" />
    <glyph glyph-name="Omega" unicode="&#x2126;" horiz-adv-x="842" 
d="M421 555c-114 0 -185 -92 -185 -198c-1 -79 33 -168 135 -193v-164h-309v157h93c-74 49 -108 149 -108 218c0 201 140 345 374 345s375 -144 375 -345c0 -75 -33 -173 -112 -218h97v-157h-309v164c105 26 140 115 140 194c0 114 -71 197 -191 197z" />
    <glyph glyph-name="estimated" unicode="&#x212e;" horiz-adv-x="633" 
d="M325 -7c-153 0 -277 101 -277 293c0 194 123 294 276 294c142 0 272 -68 272 -273c0 -23 -2 -42 -5 -59h-375v-151c30 -24 71 -34 109 -34c63 0 133 14 185 92l54 -40c-66 -93 -143 -122 -239 -122zM324 514c-39 0 -77 -8 -108 -31v-162h219v164c-31 20 -70 29 -111 29z
" />
    <glyph glyph-name="onethird" unicode="&#x2153;" horiz-adv-x="852" 
d="M534 701h111l-393 -706h-108zM656 151h-62v83h58c35 0 50 13 50 30s-20 28 -50 29c-25 1 -51 -9 -55 -29h-96c0 85 83 120 153 120c72 0 156 -39 156 -121c0 -28 -13 -53 -39 -70c28 -15 47 -47 47 -80c0 -97 -91 -120 -163 -120c-71 0 -160 37 -161 125h112
c3 -22 26 -28 48 -28c26 0 51 10 51 32c0 17 -18 29 -49 29zM40 337v91h67v162c-16 -3 -40 -9 -53 -11v92l153 42v-285h63v-91h-230z" />
    <glyph glyph-name="twothirds" unicode="&#x2154;" horiz-adv-x="916" 
d="M606 701h111l-393 -706h-108zM721 151h-62v83h58c35 0 50 13 50 30s-20 28 -50 29c-25 1 -51 -9 -55 -29h-96c0 85 83 120 153 120c72 0 156 -39 156 -121c0 -28 -13 -53 -39 -70c28 -15 47 -47 47 -80c0 -97 -91 -120 -163 -120c-71 0 -160 37 -161 125h112
c3 -22 26 -28 48 -28c26 0 51 10 51 32c0 17 -18 29 -49 29zM148 581h-105c1 80 75 124 150 124c89 0 157 -41 157 -125c0 -91 -79 -105 -140 -119c-36 -7 -58 -12 -66 -37h203v-101h-306v99c0 88 73 104 131 118c37 8 68 17 68 40c0 20 -23 29 -44 29
c-22 0 -44 -10 -48 -28z" />
    <glyph glyph-name="oneeighth" unicode="&#x215b;" horiz-adv-x="848" 
d="M534 701h111l-393 -706h-108zM40 337v91h67v162c-16 -3 -40 -9 -53 -11v92l153 42v-285h63v-91h-230zM588 119c-1 -14 14 -39 63 -39c47 0 62 23 61 39c0 19 -26 36 -60 36c-35 0 -64 -13 -64 -36zM483 120c0 22 18 56 49 76c-22 16 -38 45 -38 68c0 79 67 120 154 120
c85 0 157 -41 157 -119c0 -24 -9 -49 -38 -66c30 -20 48 -53 48 -80c1 -94 -80 -128 -167 -126c-86 0 -168 33 -165 127zM651 232c32 0 47 16 47 31c0 18 -18 32 -48 32c-32 0 -48 -14 -48 -31c0 -16 16 -32 49 -32z" />
    <glyph glyph-name="threeeighths" unicode="&#x215c;" horiz-adv-x="910" 
d="M596 701h111l-393 -706h-108zM650 119c-1 -14 14 -39 63 -39c47 0 62 23 61 39c0 19 -26 36 -60 36c-35 0 -64 -13 -64 -36zM545 120c0 22 18 56 49 76c-22 16 -38 45 -38 68c0 79 67 120 154 120c85 0 157 -41 157 -119c0 -24 -9 -49 -38 -66c30 -20 48 -53 48 -80
c1 -94 -80 -128 -167 -126c-86 0 -168 33 -165 127zM713 232c32 0 47 16 47 31c0 18 -18 32 -48 32c-32 0 -48 -14 -48 -31c0 -16 16 -32 49 -32zM196 476h-62v83h58c35 0 50 13 50 30s-20 28 -50 29c-25 1 -51 -9 -55 -29h-96c0 85 83 120 153 120c72 0 156 -39 156 -121
c0 -28 -13 -53 -39 -70c28 -15 47 -47 47 -80c0 -97 -91 -120 -163 -120c-71 0 -160 37 -161 125h112c3 -22 26 -28 48 -28c26 0 51 10 51 32c0 17 -18 29 -49 29z" />
    <glyph glyph-name="fiveeighths" unicode="&#x215d;" horiz-adv-x="900" 
d="M586 701h111l-393 -706h-108zM640 119c-1 -14 14 -39 63 -39c47 0 62 23 61 39c0 19 -26 36 -60 36c-35 0 -64 -13 -64 -36zM535 120c0 22 18 56 49 76c-22 16 -38 45 -38 68c0 79 67 120 154 120c85 0 157 -41 157 -119c0 -24 -9 -49 -38 -66c30 -20 48 -53 48 -80
c1 -94 -80 -128 -167 -126c-86 0 -168 33 -165 127zM703 232c32 0 47 16 47 31c0 18 -18 32 -48 32c-32 0 -48 -14 -48 -31c0 -16 16 -32 49 -32zM325 699v-94h-180v-33h48c75 0 156 -23 156 -125c0 -99 -82 -133 -151 -133c-87 0 -159 38 -160 132h109c3 -26 23 -38 43 -38
c24 0 49 14 49 39c0 23 -23 34 -46 34h-150v218h282z" />
    <glyph glyph-name="seveneighths" unicode="&#x215e;" horiz-adv-x="850" 
d="M521 701h111l-393 -706h-108zM590 119c-1 -14 14 -39 63 -39c47 0 62 23 61 39c0 19 -26 36 -60 36c-35 0 -64 -13 -64 -36zM485 120c0 22 18 56 49 76c-22 16 -38 45 -38 68c0 79 67 120 154 120c85 0 157 -41 157 -119c0 -24 -9 -49 -38 -66c30 -20 48 -53 48 -80
c1 -94 -80 -128 -167 -126c-86 0 -168 33 -165 127zM653 232c32 0 47 16 47 31c0 18 -18 32 -48 32c-32 0 -48 -14 -48 -31c0 -16 16 -32 49 -32zM178 328h-121l130 272h-150v100h287l4 -47z" />
    <glyph glyph-name="arrowleft" unicode="&#x2190;" horiz-adv-x="631" 
d="M276 103l-246 245l247 244l82 -76l-102 -103h324v-133h-327l99 -107z" />
    <glyph glyph-name="arrowup" unicode="&#x2191;" horiz-adv-x="547" 
d="M29 390l245 246l244 -247l-77 -82l-103 103v-325h-132v328l-107 -99z" />
    <glyph glyph-name="arrowright" unicode="&#x2192;" horiz-adv-x="631" 
d="M356 593l245 -244l-246 -244l-83 76l102 102h-324v134h328c-32 35 -67 71 -100 106z" />
    <glyph glyph-name="arrowdown" unicode="&#x2193;" horiz-adv-x="547" 
d="M517 312l-244 -246l-244 247l75 82l103 -102v324h133v-328c36 32 72 68 107 100z" />
    <glyph glyph-name="uni2196" unicode="&#x2196;" horiz-adv-x="524" 
d="M58 193v347l346 -2l4 -110l-144 -1l230 -230l-97 -93l-230 230l-5 -145z" />
    <glyph glyph-name="uni2197" unicode="&#x2197;" horiz-adv-x="525" 
d="M118 435l3 103h346c0 -56 -1 -118 -1 -173v-173l-109 -4c0 26 -1 56 -1 82v63l-232 -230l-93 97l231 230z" />
    <glyph glyph-name="uni2198" unicode="&#x2198;" horiz-adv-x="556" 
d="M125 150l-4 103l145 5l-231 230l93 97l231 -230v64c0 25 1 55 1 81l110 -4v-174c0 -55 1 -116 1 -172h-346z" />
    <glyph glyph-name="uni2199" unicode="&#x2199;" horiz-adv-x="557" 
d="M436 253l-4 -103h-346v172c0 56 1 117 1 174l111 4c-1 -26 0 -56 0 -81v-64l231 230l93 -97l-230 -230z" />
    <glyph glyph-name="partialdiff" unicode="&#x2202;" horiz-adv-x="587" 
d="M382 238c0 139 -177 135 -177 1c0 -135 177 -131 177 -1zM267 482c12 0 41 -2 56 -8c-40 51 -139 92 -192 97l28 130c243 -18 398 -213 398 -451c-1 -152 -99 -258 -264 -258c-176 0 -265 121 -265 246c0 136 83 244 239 244z" />
    <glyph glyph-name="Delta" unicode="&#x2206;" horiz-adv-x="855" 
d="M829 17v-17h-804v12l303 688h200zM428 502l-140 -343h278z" />
    <glyph glyph-name="product" unicode="&#x220f;" horiz-adv-x="696" 
d="M624 -181h-185v724h-178v-724h-189v881h552v-881z" />
    <glyph glyph-name="summation" unicode="&#x2211;" horiz-adv-x="621" 
d="M410 366l-140 -204h302v-162h-529v103l177 265c-26 38 -52 78 -168 245v87h514v-154h-271z" />
    <glyph glyph-name="uni2215" unicode="&#x2215;" horiz-adv-x="508" 
d="M365 696h162l-385 -701h-162z" />
    <glyph glyph-name="uni2219" unicode="&#x2219;" horiz-adv-x="300" 
d="M45 312c0 63 52 96 105 96c52 0 105 -33 105 -96s-53 -95 -105 -95c-53 0 -105 32 -105 95z" />
    <glyph glyph-name="radical" unicode="&#x221a;" horiz-adv-x="635" 
d="M634 727l-240 -727h-127l-158 296l-70 -27l-38 93l219 99l115 -243l181 544z" />
    <glyph glyph-name="infinity" unicode="&#x221e;" horiz-adv-x="768" 
d="M382 225c-43 -43 -96 -81 -151 -76c-119 4 -177 84 -178 165c0 86 64 170 187 170c46 0 109 -37 142 -76c43 44 100 76 144 76c123 0 189 -76 189 -170c0 -83 -60 -162 -181 -165c-59 -3 -110 34 -152 76zM532 271c72 0 72 92 0 92c-21 0 -48 -23 -73 -47
c21 -21 49 -45 73 -45zM236 271c24 0 52 24 73 45c-25 24 -52 47 -73 47c-72 0 -72 -92 0 -92z" />
    <glyph glyph-name="integral" unicode="&#x222b;" horiz-adv-x="520" 
d="M163 13v486c10 214 237 256 367 170l-63 -137c-54 33 -121 43 -121 -33v-486c-9 -202 -207 -262 -352 -158l59 125c33 -27 110 -56 110 33z" />
    <glyph glyph-name="approxequal" unicode="&#x2248;" horiz-adv-x="566" 
d="M134 313l-88 51c31 70 92 123 165 107c63 -15 171 -94 203 -10l92 -38c-24 -95 -82 -126 -150 -115c-34 3 -74 17 -108 29c-47 18 -88 33 -114 -24zM146 124l-87 50c30 71 92 123 164 108c63 -15 172 -95 204 -10l92 -39c-24 -94 -83 -125 -151 -114
c-34 3 -74 17 -107 29c-47 18 -89 32 -115 -24z" />
    <glyph glyph-name="notequal" unicode="&#x2260;" horiz-adv-x="582" 
d="M57 121v149h164c14 26 23 46 38 72h-202v150h286l55 97l94 -51l-28 -46h58v-150h-140c-15 -27 -28 -46 -41 -72h181v-149h-266c-18 -31 -38 -69 -55 -99l-92 53l27 46h-79z" />
    <glyph glyph-name="lessequal" unicode="&#x2264;" horiz-adv-x="466" 
d="M51 44v122h365v-122h-365zM50 426v8l254 216l92 -89l-143 -128l142 -126l-91 -93z" />
    <glyph glyph-name="greaterequal" unicode="&#x2265;" horiz-adv-x="466" 
d="M415 166v-122h-365v122h365zM416 434v-8l-254 -212l-91 93l142 126l-143 128l92 89z" />
    <glyph glyph-name="lozenge" unicode="&#x25ca;" horiz-adv-x="641" 
d="M613 350l-214 -351h-154l-217 351l217 352h154zM217 350l106 -183l100 182l-100 186z" />
    <glyph glyph-name="a.alt" horiz-adv-x="571" 
d="M251 507c150 0 271 -34 271 -196v-311h-167l-8 51c-35 -39 -79 -60 -135 -60c-120 0 -187 69 -187 178c0 114 105 159 214 159c25 0 67 -6 100 -16c-3 45 -45 60 -94 60c-69 0 -132 -21 -160 -33l-24 122c64 31 133 46 190 46zM205 168c0 -34 32 -41 57 -41
c28 1 73 17 80 63c-16 9 -49 20 -81 20c-35 0 -56 -15 -56 -42z" />
    <glyph glyph-name="agrave.alt" horiz-adv-x="571" 
d="M251 507c150 0 271 -34 271 -196v-311h-167l-8 51c-35 -39 -79 -60 -135 -60c-120 0 -187 69 -187 178c0 114 105 159 214 159c25 0 67 -6 100 -16c-3 45 -45 60 -94 60c-69 0 -132 -21 -160 -33l-24 122c64 31 133 46 190 46zM205 168c0 -34 32 -41 57 -41
c28 1 73 17 80 63c-16 9 -49 20 -81 20c-35 0 -56 -15 -56 -42zM123 694v7h180l72 -141v-5h-150z" />
    <glyph glyph-name="aacute.alt" horiz-adv-x="571" 
d="M251 507c-57 0 -126 -15 -190 -46l24 -122c28 12 91 33 160 33c49 0 91 -15 94 -60c-33 10 -75 16 -100 16c-109 0 -214 -45 -214 -159c0 -109 67 -178 187 -178c56 0 100 21 135 60l8 -51h167v311c0 162 -121 196 -271 196zM205 168c0 27 21 42 56 42
c32 0 65 -11 81 -20c-7 -46 -52 -62 -80 -63c-25 0 -57 7 -57 41zM454 701v-7l-102 -139h-150v5l72 141h180z" />
    <glyph glyph-name="acircumflex.alt" horiz-adv-x="571" 
d="M251 507c-57 0 -126 -15 -190 -46l24 -122c28 12 91 33 160 33c49 0 91 -15 94 -60c-33 10 -75 16 -100 16c-109 0 -214 -45 -214 -159c0 -109 67 -178 187 -178c56 0 100 21 135 60l8 -51h167v311c0 162 -121 196 -271 196zM205 168c0 27 21 42 56 42
c32 0 65 -11 81 -20c-7 -46 -52 -62 -80 -63c-25 0 -57 7 -57 41zM234 709h110l147 -147v-8h-153l-49 44l-49 -44h-152v8z" />
    <glyph glyph-name="atilde.alt" horiz-adv-x="571" 
d="M251 507c150 0 271 -34 271 -196v-311h-167l-8 51c-35 -39 -79 -60 -135 -60c-120 0 -187 69 -187 178c0 114 105 159 214 159c25 0 67 -6 100 -16c-3 45 -45 60 -94 60c-69 0 -132 -21 -160 -33l-24 122c64 31 133 46 190 46zM205 168c0 -34 32 -41 57 -41
c28 1 73 17 80 63c-16 9 -49 20 -81 20c-35 0 -56 -15 -56 -42zM283 575c-40 23 -78 28 -96 -14l-93 62c32 90 126 114 198 73c40 -24 73 -28 98 16l88 -61c-32 -89 -107 -123 -195 -76z" />
    <glyph glyph-name="adieresis.alt" horiz-adv-x="571" 
d="M251 507c-57 0 -126 -15 -190 -46l24 -122c28 12 91 33 160 33c49 0 91 -15 94 -60c-33 10 -75 16 -100 16c-109 0 -214 -45 -214 -159c0 -109 67 -178 187 -178c56 0 100 21 135 60l8 -51h167v311c0 162 -121 196 -271 196zM205 168c0 27 21 42 56 42
c32 0 65 -11 81 -20c-7 -46 -52 -62 -80 -63c-25 0 -57 7 -57 41zM73 633c0 53 44 82 89 82s90 -29 90 -82c0 -52 -45 -80 -90 -80s-89 28 -89 80zM318 633c0 53 45 82 91 82c44 0 90 -29 90 -82c0 -52 -46 -80 -90 -80c-46 0 -91 28 -91 80z" />
    <glyph glyph-name="amacron.alt" horiz-adv-x="571" 
d="M120 573v125h338v-125h-338zM251 507c150 0 271 -34 271 -196v-311h-167l-8 51c-35 -39 -79 -60 -135 -60c-120 0 -187 69 -187 178c0 114 105 159 214 159c25 0 67 -6 100 -16c-3 45 -45 60 -94 60c-69 0 -132 -21 -160 -33l-24 122c64 31 133 46 190 46zM205 168
c0 -34 32 -41 57 -41c28 1 73 17 80 63c-16 9 -49 20 -81 20c-35 0 -56 -15 -56 -42z" />
    <glyph glyph-name="abreve.alt" horiz-adv-x="571" 
d="M251 507c150 0 271 -34 271 -196v-311h-167l-8 51c-35 -39 -79 -60 -135 -60c-120 0 -187 69 -187 178c0 111 105 159 214 159c25 0 67 -6 100 -16c-3 45 -45 60 -94 60c-69 0 -132 -21 -160 -33l-24 122c64 31 133 46 190 46zM205 168c0 -34 32 -41 57 -41
c28 1 73 17 80 63c-16 9 -49 20 -81 20c-35 0 -56 -15 -56 -42zM112 706h131c0 -37 31 -41 41 -41c11 0 41 4 41 41h131c3 -100 -68 -159 -172 -159c-103 0 -175 59 -172 159z" />
    <glyph glyph-name="aring.alt" horiz-adv-x="571" 
d="M251 507c150 0 271 -34 271 -196v-311h-167l-8 51c-35 -39 -79 -60 -135 -60c-120 0 -187 69 -187 178c0 111 105 159 214 159c25 0 67 -6 100 -16c-3 45 -45 60 -94 60c-69 0 -132 -21 -160 -33l-24 122c64 31 133 46 190 46zM205 168c0 -34 32 -41 57 -41
c28 1 73 17 80 63c-16 9 -49 20 -81 20c-35 0 -56 -15 -56 -42zM287 772c199 0 202 -237 0 -237c-197 0 -198 237 0 237zM289 687c-56 0 -56 -67 0 -67c54 0 53 67 0 67z" />
    <glyph glyph-name="aringacute.alt" horiz-adv-x="571" 
d="M251 507c-57 0 -126 -15 -190 -46l24 -122c28 12 91 33 160 33c49 0 91 -15 94 -60c-33 10 -75 16 -100 16c-109 0 -214 -48 -214 -159c0 -109 67 -178 187 -178c56 0 100 21 135 60l8 -51h167v311c0 162 -121 196 -271 196zM205 168c0 27 21 42 56 42
c32 0 65 -11 81 -20c-7 -46 -52 -62 -80 -63c-25 0 -57 7 -57 41zM286 764c-188 0 -187 -227 0 -227c191 0 188 227 0 227zM287 685c56 0 57 -69 0 -69c-58 0 -58 69 0 69zM460 908v-6l-103 -114h-152v4l72 116h183z" />
    <glyph glyph-name="aogonek.alt" horiz-adv-x="571" 
d="M522 311v-355c-30 9 -104 9 -92 -39c7 -26 59 -18 77 -9l56 -77c-76 -59 -236 -51 -258 54c-11 53 13 95 58 115l-13 53c-35 -39 -82 -62 -138 -62c-120 0 -187 69 -187 178c0 111 105 159 214 159c25 0 67 -6 100 -16c-3 45 -45 60 -94 60c-69 0 -132 -21 -160 -33
l-24 122c64 31 133 46 190 46c150 0 271 -34 271 -196zM205 168c0 -34 32 -41 57 -41c28 1 73 17 80 63c-16 9 -49 20 -81 20c-35 0 -56 -15 -56 -42z" />
    <glyph glyph-name="y.alt" horiz-adv-x="621" 
d="M229 494v-244c0 -55 17 -108 79 -108s75 60 75 105v247h184v-492c0 -172 -99 -248 -255 -248c-154 0 -248 66 -254 208h183c6 -40 28 -60 71 -60c60 0 78 34 78 95v65c-30 -49 -68 -63 -123 -63c-157 0 -220 104 -220 248v247h182z" />
    <glyph glyph-name="yacute.alt" horiz-adv-x="621" 
d="M229 250v244h-182v-247c0 -144 63 -248 220 -248c55 0 93 14 123 63v-65c0 -61 -18 -95 -78 -95c-43 0 -65 20 -71 60h-183c6 -142 100 -208 254 -208c156 0 255 76 255 248v492h-184v-247c0 -45 -13 -105 -75 -105s-79 53 -79 108zM491 709v-8l-109 -159h-161v6l77 161
h193z" />
    <glyph glyph-name="ycircumflex.alt" horiz-adv-x="621" 
d="M229 250v244h-182v-247c0 -144 63 -248 220 -248c55 0 93 14 123 63v-65c0 -61 -18 -95 -78 -95c-43 0 -65 20 -71 60h-183c6 -142 100 -208 254 -208c156 0 255 76 255 248v492h-184v-247c0 -45 -13 -105 -75 -105s-79 53 -79 108zM249 717h114l152 -157v-8h-158l-51 47
l-51 -47h-158v8z" />
    <glyph glyph-name="ydieresis.alt" horiz-adv-x="621" 
d="M229 250v244h-182v-247c0 -144 63 -248 220 -248c55 0 93 14 123 63v-65c0 -61 -18 -95 -78 -95c-43 0 -65 20 -71 60h-183c6 -142 100 -208 254 -208c156 0 255 76 255 248v492h-184v-247c0 -45 -13 -105 -75 -105s-79 53 -79 108zM68 628c0 56 46 86 93 86
s95 -30 95 -86c0 -54 -48 -83 -95 -83s-93 29 -93 83zM358 628c0 56 47 86 95 86c46 0 94 -30 94 -86c0 -54 -48 -83 -94 -83c-48 0 -95 29 -95 83z" />
    <glyph glyph-name="ygrave.alt" horiz-adv-x="621" 
d="M229 494v-244c0 -55 17 -108 79 -108s75 60 75 105v247h184v-492c0 -172 -99 -248 -255 -248c-154 0 -248 66 -254 208h183c6 -40 28 -60 71 -60c60 0 78 34 78 95v65c-30 -49 -68 -63 -123 -63c-157 0 -220 104 -220 248v247h182zM131 701v8h193l77 -161v-6h-161z" />
    <glyph glyph-name="Aacute" unicode="&#xc1;" horiz-adv-x="797" 
d="M554 115l46 -115h212l-313 700h-200l-314 -700h210l46 115h313zM398 504l89 -223h-179zM591 919v-8l-109 -159h-161v6l77 161h193z" />
    <glyph glyph-name="Agrave" unicode="&#xc0;" horiz-adv-x="797" 
d="M600 0l-46 115h-313l-46 -115h-210l314 700h200l313 -700h-212zM487 281l-89 223l-90 -223h179zM212 911v8h193l77 -161v-6h-161z" />
    <glyph glyph-name="Adieresis" unicode="&#xc4;" horiz-adv-x="797" 
d="M554 115l46 -115h212l-313 700h-200l-314 -700h210l46 115h313zM398 504l89 -223h-179zM158 830c0 56 46 86 93 86s95 -30 95 -86c0 -54 -48 -83 -95 -83s-93 29 -93 83zM448 830c0 56 47 86 95 86c46 0 94 -30 94 -86c0 -54 -48 -83 -94 -83c-48 0 -95 29 -95 83z" />
    <glyph glyph-name="Atilde" unicode="&#xc3;" horiz-adv-x="797" 
d="M600 0l-46 115h-313l-46 -115h-210l314 700h200l313 -700h-212zM487 281l-89 223l-90 -223h179zM391 771c-44 24 -85 29 -105 -14l-101 64c34 92 137 116 215 74c44 -24 80 -28 107 17l97 -63c-35 -91 -117 -126 -213 -78z" />
    <glyph glyph-name="Acircumflex" unicode="&#xc2;" horiz-adv-x="797" 
d="M554 115l46 -115h212l-313 700h-200l-314 -700h210l46 115h313zM398 504l89 -223h-179zM340 915h114l152 -157v-8h-158l-51 47l-51 -47h-158v8z" />
    <glyph glyph-name="Idieresis" unicode="&#xcf;" horiz-adv-x="339" 
d="M-50 847c0 56 46 86 93 86s95 -30 95 -86c0 -54 -48 -83 -95 -83s-93 29 -93 83zM213 847c0 56 47 86 95 86c46 0 94 -30 94 -86c0 -54 -48 -83 -94 -83c-48 0 -95 29 -95 83zM71 0h197v700h-197v-700z" />
    <glyph glyph-name="Icircumflex" unicode="&#xce;" horiz-adv-x="339" 
d="M71 0h197v700h-197v-700zM115 915h114l152 -157v-8h-158l-51 47l-51 -47h-158v8z" />
    <glyph glyph-name="Iacute" unicode="&#xcd;" horiz-adv-x="339" 
d="M71 0h197v700h-197v-700zM350 916v-8l-109 -159h-161v6l77 161h193z" />
    <glyph glyph-name="Igrave" unicode="&#xcc;" horiz-adv-x="339" 
d="M268 0h-197v700h197v-700zM-9 910v8h193l77 -161v-6h-161z" />
    <glyph glyph-name="Odieresis" unicode="&#xd6;" horiz-adv-x="842" 
d="M810 350c0 233 -159 367 -389 367c-229 0 -389 -137 -389 -367c0 -234 160 -367 389 -367c230 0 389 133 389 367zM612 350c0 -116 -75 -198 -191 -198c-112 0 -191 81 -191 198c0 116 78 198 191 198c116 0 191 -78 191 -198zM184 843c0 56 46 86 93 86s95 -30 95 -86
c0 -54 -48 -83 -95 -83s-93 29 -93 83zM474 843c0 56 47 86 95 86c46 0 94 -30 94 -86c0 -54 -48 -83 -94 -83c-48 0 -95 29 -95 83z" />
    <glyph glyph-name="Otilde" unicode="&#xd5;" horiz-adv-x="842" 
d="M810 350c0 -234 -159 -367 -389 -367c-229 0 -389 133 -389 367c0 230 160 367 389 367c230 0 389 -134 389 -367zM612 350c0 120 -75 198 -191 198c-113 0 -191 -82 -191 -198c0 -117 79 -198 191 -198c116 0 191 82 191 198zM419 788c-46 26 -89 31 -110 -14l-106 67
c36 96 144 121 226 77c46 -25 83 -29 112 18l101 -66c-36 -95 -122 -132 -223 -82z" />
    <glyph glyph-name="Ocircumflex" unicode="&#xd4;" horiz-adv-x="842" 
d="M810 350c0 233 -159 367 -389 367c-229 0 -389 -137 -389 -367c0 -234 160 -367 389 -367c230 0 389 133 389 367zM612 350c0 -116 -75 -198 -191 -198c-112 0 -191 81 -191 198c0 116 78 198 191 198c116 0 191 -78 191 -198zM367 928h114l152 -157v-8h-158l-51 47
l-51 -47h-158v8z" />
    <glyph glyph-name="Oacute" unicode="&#xd3;" horiz-adv-x="842" 
d="M810 350c0 233 -159 367 -389 367c-229 0 -389 -137 -389 -367c0 -234 160 -367 389 -367c230 0 389 133 389 367zM612 350c0 -116 -75 -198 -191 -198c-112 0 -191 81 -191 198c0 116 78 198 191 198c116 0 191 -78 191 -198zM602 936v-8l-109 -159h-161v6l77 161h193z
" />
    <glyph glyph-name="Ograve" unicode="&#xd2;" horiz-adv-x="842" 
d="M810 350c0 -234 -159 -367 -389 -367c-229 0 -389 133 -389 367c0 230 160 367 389 367c230 0 389 -134 389 -367zM612 350c0 120 -75 198 -191 198c-113 0 -191 -82 -191 -198c0 -117 79 -198 191 -198c116 0 191 82 191 198zM247 928v8h193l77 -161v-6h-161z" />
    <glyph glyph-name="Ntilde" unicode="&#xd1;" horiz-adv-x="799" 
d="M239 700l296 -383c-5 84 -5 116 -6 143v240h199v-700h-168l-292 377l3 -153v-224h-200v700h168zM387 785c-46 26 -90 31 -111 -15l-107 68c36 98 145 123 228 79c47 -26 85 -30 114 18l103 -67c-38 -97 -125 -134 -227 -83z" />
    <glyph glyph-name="Yacute" unicode="&#xdd;" horiz-adv-x="722" 
d="M362 460l-145 240h-223v-8l266 -413v-279h198v279l278 412v9h-223zM545 924v-8l-109 -159h-161v6l77 161h193z" />
    <glyph glyph-name="Udieresis" unicode="&#xdc;" horiz-adv-x="780" 
d="M720 699h-197v-391c0 -106 -53 -154 -133 -154s-133 46 -133 156v389h-197v-389c0 -214 125 -325 330 -325s331 116 330 323v391zM148 848c0 56 46 86 93 86s95 -30 95 -86c0 -54 -48 -83 -95 -83s-93 29 -93 83zM438 848c0 56 47 86 95 86c46 0 94 -30 94 -86
c0 -54 -48 -83 -94 -83c-48 0 -95 29 -95 83z" />
    <glyph glyph-name="Ucircumflex" unicode="&#xdb;" horiz-adv-x="780" 
d="M720 699h-197v-391c0 -106 -53 -154 -133 -154s-133 46 -133 156v389h-197v-389c0 -214 125 -325 330 -325s331 116 330 323v391zM336 929h114l152 -157v-8h-158l-51 47l-51 -47h-158v8z" />
    <glyph glyph-name="Uacute" unicode="&#xda;" horiz-adv-x="780" 
d="M720 699h-197v-391c0 -106 -53 -154 -133 -154s-133 46 -133 156v389h-197v-389c0 -214 125 -325 330 -325s331 116 330 323v391zM567 924v-8l-109 -159h-161v6l77 161h193z" />
    <glyph glyph-name="Ugrave" unicode="&#xd9;" horiz-adv-x="780" 
d="M523 699h197v-391c1 -207 -125 -323 -330 -323s-330 111 -330 325v389h197v-389c0 -110 53 -156 133 -156s133 48 133 154v391zM216 917v8h193l77 -161v-6h-161z" />
    <glyph glyph-name="aring" unicode="&#xe5;" horiz-adv-x="648" 
d="M412 441l9 53h173v-494h-170l-8 53c-42 -48 -108 -65 -163 -62c-145 9 -226 112 -226 256c0 146 96 258 240 258c70 0 119 -24 145 -64zM309 356c-55 0 -99 -40 -99 -109s44 -108 99 -108c62 0 102 50 102 108c0 66 -37 109 -102 109zM322 788c199 0 202 -245 0 -245
c-197 0 -198 245 0 245zM323 700c-55 0 -55 -68 0 -68s54 68 0 68z" />
    <glyph glyph-name="adieresis" unicode="&#xe4;" horiz-adv-x="648" 
d="M122 635c0 56 46 86 93 86s95 -30 95 -86c0 -54 -48 -83 -95 -83s-93 29 -93 83zM378 635c0 56 47 86 95 86c46 0 94 -30 94 -86c0 -54 -48 -83 -94 -83c-48 0 -95 29 -95 83zM421 494l-9 -53c-26 40 -75 64 -145 64c-144 0 -240 -112 -240 -258c0 -144 81 -247 226 -256
c55 -3 121 14 163 62l8 -53h170v494h-173zM309 356c65 0 102 -43 102 -109c0 -58 -40 -108 -102 -108c-55 0 -99 39 -99 108s44 109 99 109z" />
    <glyph glyph-name="acircumflex" unicode="&#xe2;" horiz-adv-x="648" 
d="M421 494l-9 -53c-26 40 -75 64 -145 64c-144 0 -240 -112 -240 -258c0 -144 81 -247 226 -256c55 -3 121 14 163 62l8 -53h170v494h-173zM309 356c65 0 102 -43 102 -109c0 -58 -40 -108 -102 -108c-55 0 -99 39 -99 108s44 109 99 109zM274 715h114l152 -157v-8h-158
l-51 47l-51 -47h-158v8z" />
    <glyph glyph-name="aacute" unicode="&#xe1;" horiz-adv-x="648" 
d="M421 494l-9 -53c-26 40 -75 64 -145 64c-144 0 -240 -112 -240 -258c0 -144 81 -247 226 -256c55 -3 121 14 163 62l8 -53h170v494h-173zM309 356c65 0 102 -43 102 -109c0 -58 -40 -108 -102 -108c-55 0 -99 39 -99 108s44 109 99 109zM498 714v-8l-107 -155h-157v6
l75 157h189z" />
    <glyph glyph-name="agrave" unicode="&#xe0;" horiz-adv-x="648" 
d="M412 441l9 53h173v-494h-170l-8 53c-42 -48 -108 -65 -163 -62c-145 9 -226 112 -226 256c0 146 96 258 240 258c70 0 119 -24 145 -64zM309 356c-55 0 -99 -40 -99 -109s44 -108 99 -108c62 0 102 50 102 108c0 66 -37 109 -102 109zM165 708v7h189l76 -158v-6h-158z
" />
    <glyph glyph-name="edieresis" unicode="&#xeb;" horiz-adv-x="590" 
d="M106 635c0 53 44 82 88 82c45 0 90 -29 90 -82c0 -51 -45 -79 -90 -79c-44 0 -88 28 -88 79zM350 635c0 53 44 82 90 82c43 0 89 -29 89 -82c0 -51 -46 -79 -89 -79c-46 0 -90 28 -90 79zM214 313h179c-5 78 -167 81 -179 0zM302 506c175 0 298 -116 256 -311h-345
c13 -44 70 -63 110 -63c54 0 95 16 127 40l90 -101c-59 -55 -140 -82 -225 -82c-156 0 -288 77 -288 257s141 260 275 260z" />
    <glyph glyph-name="ecircumflex" unicode="&#xea;" horiz-adv-x="590" 
d="M214 313h179c-5 78 -167 81 -179 0zM302 506c175 0 298 -116 256 -311h-345c13 -44 70 -63 110 -63c54 0 95 16 127 40l90 -101c-59 -55 -140 -82 -225 -82c-156 0 -288 77 -288 257s141 260 275 260zM247 711h114l152 -157v-8h-158l-51 47l-51 -47h-158v8z" />
    <glyph glyph-name="eacute" unicode="&#xe9;" horiz-adv-x="590" 
d="M214 313h179c-5 78 -167 81 -179 0zM302 506c175 0 298 -116 256 -311h-345c13 -44 70 -63 110 -63c54 0 95 16 127 40l90 -101c-59 -55 -140 -82 -225 -82c-156 0 -288 77 -288 257s141 260 275 260zM481 714v-8l-106 -154h-156v6l75 156h187z" />
    <glyph glyph-name="egrave" unicode="&#xe8;" horiz-adv-x="590" 
d="M214 313h179c-5 78 -167 81 -179 0zM302 506c175 0 298 -116 256 -311h-345c13 -44 70 -63 110 -63c54 0 95 16 127 40l90 -101c-59 -55 -140 -82 -225 -82c-156 0 -288 77 -288 257s141 260 275 260zM143 707v8h187l75 -156v-6h-156z" />
    <glyph glyph-name="ograve" unicode="&#xf2;" horiz-adv-x="618" 
d="M309 505c146 0 282 -79 282 -259s-143 -258 -282 -258c-142 0 -282 78 -282 258c0 183 139 259 282 259zM309 139c62 0 102 47 102 107c0 57 -37 108 -102 108s-102 -51 -102 -108s37 -107 102 -107zM138 709v7h194l77 -153v-6h-162z" />
    <glyph glyph-name="odieresis" unicode="&#xf6;" horiz-adv-x="618" 
d="M96 638c0 56 46 86 93 86s95 -30 95 -86c0 -54 -48 -83 -95 -83s-93 29 -93 83zM336 638c0 56 47 86 95 86c46 0 94 -30 94 -86c0 -54 -48 -83 -94 -83c-48 0 -95 29 -95 83zM309 508c-143 0 -282 -76 -282 -259c0 -180 140 -258 282 -258c139 0 282 78 282 258
s-136 259 -282 259zM309 142c-65 0 -102 50 -102 107s37 108 102 108s102 -51 102 -108c0 -60 -40 -107 -102 -107z" />
    <glyph glyph-name="otilde" unicode="&#xf5;" horiz-adv-x="618" 
d="M309 505c146 0 282 -79 282 -259s-143 -258 -282 -258c-142 0 -282 78 -282 258c0 183 139 259 282 259zM309 139c62 0 102 47 102 107c0 57 -37 108 -102 108s-102 -51 -102 -108s37 -107 102 -107zM315 569c-42 25 -80 30 -99 -14l-96 65c32 95 130 120 204 76
c41 -24 75 -28 101 18l91 -65c-33 -93 -110 -129 -201 -80z" />
    <glyph glyph-name="ocircumflex" unicode="&#xf4;" horiz-adv-x="618" 
d="M309 505c-143 0 -282 -76 -282 -259c0 -180 140 -258 282 -258c139 0 282 78 282 258s-136 259 -282 259zM309 139c-65 0 -102 50 -102 107s37 108 102 108s102 -51 102 -108c0 -60 -40 -107 -102 -107zM252 710h114l152 -157v-8h-158l-51 47l-51 -47h-158v8z" />
    <glyph glyph-name="oacute" unicode="&#xf3;" horiz-adv-x="618" 
d="M309 505c-143 0 -282 -76 -282 -259c0 -180 140 -258 282 -258c139 0 282 78 282 258s-136 259 -282 259zM309 139c-65 0 -102 50 -102 107s37 108 102 108s102 -51 102 -108c0 -60 -40 -107 -102 -107zM477 713v-8l-107 -153h-157v6l75 155h189z" />
    <glyph glyph-name="uacute" unicode="&#xfa;" 
d="M232 494h-184v-274c0 -176 89 -231 193 -232c52 -1 114 17 156 66l8 -54h163v494h-182v-263c0 -65 -41 -92 -85 -92c-34 0 -69 21 -69 82v273zM494 713v-8l-110 -155h-162v6l78 157h194z" />
    <glyph glyph-name="yacute" unicode="&#xfd;" horiz-adv-x="582" 
d="M591 494h-197l-46 -117l-60 -172l-54 171l-42 118h-195l196 -472l-100 -231h192zM477 711v-8l-109 -159h-161v6l77 161h193z" />
    <glyph glyph-name="udieresis" unicode="&#xfc;" 
d="M232 494h-184v-274c0 -176 89 -231 193 -232c52 -1 114 17 156 66l8 -54h163v494h-182v-263c0 -65 -41 -92 -85 -92c-34 0 -69 21 -69 82v273zM74 629c0 54 46 83 92 83s93 -29 93 -83c0 -52 -47 -80 -93 -80s-92 28 -92 80zM360 629c0 54 46 83 93 83
c45 0 92 -29 92 -83c0 -52 -47 -80 -92 -80c-47 0 -93 28 -93 80z" />
    <glyph glyph-name="ucircumflex" unicode="&#xfb;" 
d="M232 494h-184v-274c0 -176 89 -231 193 -232c52 -1 114 17 156 66l8 -54h163v494h-182v-263c0 -65 -41 -92 -85 -92c-34 0 -69 21 -69 82v273zM248 713h117l155 -150v-8h-161l-52 45l-52 -45h-162v8z" />
    <glyph glyph-name="ydieresis" unicode="&#xff;" horiz-adv-x="582" 
d="M591 494h-197l-46 -117l-60 -172l-54 171l-42 118h-195l196 -472l-100 -231h192zM61 627c0 56 46 86 93 86s95 -30 95 -86c0 -54 -48 -83 -95 -83s-93 29 -93 83zM351 627c0 56 47 86 95 86c46 0 94 -30 94 -86c0 -54 -48 -83 -94 -83c-48 0 -95 29 -95 83z" />
    <glyph glyph-name="ugrave" unicode="&#xf9;" 
d="M48 494h184v-273c0 -61 35 -82 69 -82c44 0 85 27 85 92v263h182v-494h-163l-8 54c-42 -49 -104 -67 -156 -66c-104 1 -193 56 -193 232v274zM130 701v8h193l77 -155v-5h-161z" />
    <glyph glyph-name="ellipsis" unicode="&#x2026;" horiz-adv-x="823" 
d="M141 -8c-131 0 -133 181 0 181c134 0 133 -181 0 -181zM411 -8c-131 0 -133 181 0 181c134 0 133 -181 0 -181zM681 -8c-131 0 -133 181 0 181c134 0 133 -181 0 -181z" />
    <glyph glyph-name="oe" unicode="&#x153;" horiz-adv-x="948" 
d="M574 313h177c-5 78 -165 81 -177 0zM309 139c65 0 98 47 98 107s-33 108 -98 108s-98 -48 -98 -108s33 -107 98 -107zM309 505c70 0 135 -20 182 -75c38 44 105 76 169 76c175 0 298 -116 256 -311h-343c13 -44 68 -63 108 -63c54 0 95 16 127 40l92 -106
c-59 -51 -147 -76 -230 -76c-70 0 -135 19 -180 74c-53 -49 -114 -76 -193 -76c-144 0 -270 85 -270 258c0 186 139 259 282 259z" />
    <glyph glyph-name="exclamdown" unicode="&#xa1;" horiz-adv-x="303" 
d="M244 269h-187l-4 -470h194zM152 504c140 0 140 -196 0 -196c-142 0 -143 196 0 196z" />
    <glyph glyph-name="questiondown" unicode="&#xbf;" horiz-adv-x="594" 
d="M410 271h-194c-3 -128 -184 -124 -185 -269c-1 -154 132 -209 275 -209s274 80 259 234h-176c0 -58 -39 -74 -83 -74c-50 0 -74 29 -73 60c1 22 16 38 48 57c55 32 122 66 129 201zM311 506c140 0 140 -196 0 -196c-142 0 -143 196 0 196z" />
    <glyph glyph-name="Aring" unicode="&#xc5;" horiz-adv-x="797" 
d="M399 879c152 0 195 -151 123 -231l290 -648h-212l-46 115h-313l-46 -115h-210l292 650c-69 81 -28 229 122 229zM446 384l-48 146l-49 -146l-41 -103h179zM401 779c-62 0 -62 -84 0 -84c60 0 59 84 0 84z" />
    <glyph glyph-name="Ccedilla" unicode="&#xc7;" horiz-adv-x="708" 
d="M217 -221l65 64c30 -28 100 -42 111 -2c9 34 -51 55 -87 32l-29 21l39 97c-201 37 -281 189 -282 354c-1 180 120 371 383 371c101 0 192 -35 271 -112l-122 -120c-50 48 -102 61 -149 61c-135 0 -188 -110 -187 -201s49 -194 187 -194c47 0 115 20 165 71l116 -130
c-75 -74 -165 -105 -264 -109l-12 -33c90 -9 125 -73 103 -139c-41 -116 -240 -117 -308 -31z" />
    <glyph glyph-name="Oslash" unicode="&#xd8;" horiz-adv-x="842" 
d="M610 769h173l-91 -140c75 -63 118 -158 118 -279c0 -234 -159 -367 -389 -367c-49 0 -94 6 -136 17l-48 -74h-171l90 139c-78 63 -124 159 -124 285c0 230 160 367 389 367c51 0 99 -7 142 -20zM421 548c-113 0 -191 -82 -191 -198c0 -46 12 -86 33 -118l202 312
c-14 2 -29 4 -44 4zM612 350c0 43 -10 81 -28 112l-199 -307c12 -2 23 -3 36 -3c116 0 191 82 191 198z" />
    <glyph glyph-name="atilde" unicode="&#xe3;" horiz-adv-x="648" 
d="M412 441l9 53h173v-494h-170l-8 53c-42 -48 -108 -65 -163 -62c-145 9 -226 112 -226 256c0 146 96 258 240 258c70 0 119 -24 145 -64zM309 356c-55 0 -99 -40 -99 -109s44 -108 99 -108c62 0 102 50 102 108c0 66 -37 109 -102 109zM323 573c-42 25 -82 30 -101 -14
l-97 66c33 94 132 118 207 75c42 -24 77 -28 103 18l93 -65c-34 -93 -113 -129 -205 -80z" />
    <glyph glyph-name="ae" unicode="&#xe6;" horiz-adv-x="946" 
d="M315 356c-55 0 -99 -40 -99 -109s44 -108 99 -108c62 0 104 42 104 103c0 72 -39 114 -104 114zM573 313h182c-5 78 -170 81 -182 0zM910 195h-338c13 -44 73 -63 113 -63c54 0 95 16 127 40l90 -101c-59 -55 -140 -82 -225 -82c-53 0 -106 16 -137 56l-3 -45h-113l-8 53
c-42 -48 -108 -65 -163 -62c-145 9 -226 112 -226 256c0 146 96 258 240 258c70 0 119 -24 145 -64l9 53h116l3 -41c43 35 96 51 148 50c144 -1 266 -112 222 -308z" />
    <glyph glyph-name="ccedilla" unicode="&#xe7;" horiz-adv-x="520" 
d="M406 184l105 -110c-53 -47 -115 -77 -180 -83l-16 -42c89 -9 124 -68 103 -130c-39 -114 -237 -119 -304 -32l64 61c29 -27 98 -41 109 -2c9 33 -50 53 -86 31l-28 19l43 104c-106 26 -189 101 -189 246c0 180 138 259 277 259c71 0 142 -25 194 -77l-98 -106
c-24 25 -52 36 -85 36c-70 0 -108 -51 -108 -113c0 -54 37 -102 107 -102c34 0 67 14 92 41z" />
    <glyph glyph-name="idieresis" unicode="&#xef;" horiz-adv-x="292" 
d="M-55 619c0 58 43 89 88 89c44 0 90 -31 90 -89c0 -55 -46 -85 -90 -85c-45 0 -88 30 -88 85zM165 619c0 58 45 89 90 89c44 0 89 -31 89 -89c0 -55 -45 -85 -89 -85c-45 0 -90 30 -90 85zM54 0h184v494h-184v-494z" />
    <glyph glyph-name="icircumflex" unicode="&#xee;" horiz-adv-x="292" 
d="M91 709h101l134 -159v-8h-142l-43 45l-45 -45h-140v8zM54 0h184v494h-184v-494z" />
    <glyph glyph-name="iacute" unicode="&#xed;" horiz-adv-x="292" 
d="M283 706v-8l-74 -155h-154v6l57 157h171zM54 0h184v494h-184v-494z" />
    <glyph glyph-name="igrave" unicode="&#xec;" horiz-adv-x="292" 
d="M0 698v8h171l52 -157v-6h-149zM238 0h-184v494h184v-494z" />
    <glyph glyph-name="oslash" unicode="&#xf8;" horiz-adv-x="619" 
d="M310 139c65 0 98 47 98 107s-33 108 -98 108s-98 -48 -98 -108s33 -107 98 -107zM310 505c20 0 41 -2 61 -5l33 55h170l-67 -110c52 -42 85 -107 85 -199c0 -186 -143 -258 -282 -258c-19 0 -38 2 -57 4l-31 -52h-171l65 107c-53 41 -88 106 -88 199
c0 186 139 259 282 259z" />
    </font>
</defs>
</svg>
